<svg width="20" height="20" viewBox="0 0 20 20" fill="none" xmlns="http://www.w3.org/2000/svg">
<path d="M18.9638 14.4765V17.1862C18.9648 17.4377 18.9133 17.6867 18.8125 17.9172C18.7117 18.1477 18.5639 18.3546 18.3786 18.5247C18.1932 18.6947 17.9743 18.8242 17.736 18.9048C17.4978 18.9854 17.2452 19.0153 16.9947 18.9927C14.2153 18.6907 11.5455 17.7409 9.19974 16.2197C7.01735 14.8329 5.16706 12.9827 3.78028 10.8003C2.25379 8.44389 1.30381 5.76107 1.00733 2.96915C0.98476 2.71938 1.01444 2.46764 1.09449 2.22996C1.17454 1.99229 1.30321 1.77389 1.47229 1.58866C1.64137 1.40343 1.84717 1.25544 2.07658 1.15411C2.30599 1.05278 2.55399 1.00032 2.80478 1.00009H5.51451C5.95286 0.995773 6.37782 1.151 6.71019 1.43683C7.04255 1.72267 7.25964 2.11961 7.32099 2.55366C7.43536 3.42084 7.64747 4.27229 7.95326 5.09177C8.07479 5.41507 8.10109 5.76642 8.02905 6.1042C7.95701 6.44198 7.78965 6.75203 7.5468 6.99761L6.39969 8.14473C7.6855 10.406 9.55783 12.2784 11.8191 13.5642L12.9663 12.4171C13.2118 12.1742 13.5219 12.0069 13.8597 11.9348C14.1975 11.8628 14.5488 11.8891 14.8721 12.0106C15.6916 12.3164 16.543 12.5285 17.4102 12.6429C17.849 12.7048 18.2497 12.9258 18.5361 13.2639C18.8226 13.6019 18.9748 14.0335 18.9638 14.4765Z" stroke="white" stroke-width="1.5" stroke-linecap="round" stroke-linejoin="round"/>
</svg>
