<svg width="90" height="40" viewBox="0 0 90 40" fill="none" xmlns="http://www.w3.org/2000/svg">
<path d="M0 0L5.72738 8.41957C6.07111 7.79716 6.76079 6.76301 7.79716 5.3149L4.1403 0H0Z" fill="white"/>
<path d="M9.19278 7.79053C8.55189 8.94665 8.16676 10.2292 7.84595 11.6403L10.6047 15.618H14.518L9.19278 7.79053Z" fill="white"/>
<path d="M7.39651 7.14731C5.92031 9.39377 4.89429 11.5116 4.38202 13.3086C3.80396 15.6172 3.99615 17.4149 4.95934 18.8253L6.81845 21.5219C6.94781 21.6491 7.01064 21.7762 7.14 22.035C7.39651 22.3558 7.52439 22.7402 7.65375 23.1238C8.03814 24.4078 7.90952 25.7561 7.39651 27.2316C7.39651 27.2316 7.26862 27.5539 6.94781 28.2591C6.56194 29.0929 6.17755 30.0546 5.66454 31.0171C4.25192 34.033 2.58501 37.0497 0.65863 39.9999C3.29021 37.1126 5.66454 34.0323 7.84595 30.6977C8.55189 29.5416 9.19278 28.452 9.83515 27.4881C9.96378 27.1687 10.156 26.8465 10.2824 26.5256L10.476 26.2691V26.2048C11.0548 24.7944 11.1177 23.4476 10.7326 22.0993C10.6047 21.7127 10.4117 21.2625 10.1552 20.9431C10.0909 20.7524 10.0288 20.6866 10.0288 20.6223L9.96304 20.5588H9.89872V20.4967L8.03814 17.8C6.62625 15.6179 6.69056 12.4112 8.35822 8.17555C9.38498 5.67407 10.7326 3.17112 12.5288 0.541016L12.466 0.606805C12.0816 0.989715 11.6307 1.50346 11.1177 2.08152C9.70727 3.81275 8.42327 5.4804 7.39651 7.14731Z" fill="white"/>
<path d="M19.7679 34.7118V10.4598H23.5445V13.1321C23.9865 12.0913 24.6888 11.2929 25.6571 10.726C26.6322 10.1582 27.7868 9.87512 29.1351 9.87512C31.3276 9.87512 33.1084 10.6838 34.4744 12.3056C35.8368 13.9275 36.5176 16.0534 36.5176 18.6917C36.5176 21.4689 35.8471 23.654 34.5092 25.2484C33.1675 26.8458 31.3276 27.6442 28.9969 27.6442C27.8356 27.6442 26.8051 27.4128 25.9026 26.953C25.003 26.4888 24.2187 25.7866 23.5445 24.8359V34.711H19.7679V34.7118ZM23.4188 18.654C23.4188 20.3682 23.8476 21.7387 24.6984 22.7662C25.5522 23.7922 26.6728 24.3037 28.0625 24.3037C29.4877 24.3037 30.5899 23.8277 31.3749 22.8733C32.1563 21.9153 32.5473 20.5589 32.5473 18.7929C32.5473 17.0469 32.1363 15.6809 31.3202 14.6948C30.5071 13.7094 29.3835 13.2186 27.959 13.2186C26.5309 13.2186 25.4213 13.6961 24.6186 14.6497C23.821 15.6084 23.4188 16.9427 23.4188 18.654Z" fill="white"/>
<path d="M40.1649 3.32347C40.1649 2.68701 40.3999 2.13038 40.8701 1.6669C41.3432 1.20416 41.902 0.972046 42.5592 0.972046C43.2296 0.972046 43.7899 1.19677 44.2386 1.63955C44.6888 2.08899 44.9091 2.653 44.9091 3.32347C44.9091 4.00132 44.6814 4.56459 44.232 5.02438C43.7759 5.48417 43.2222 5.71628 42.5584 5.71628C41.9005 5.71628 41.3424 5.47752 40.8693 5.00368C40.4007 4.53355 40.1649 3.97323 40.1649 3.32347ZM40.7015 10.4598H44.4752V26.967H40.7015V10.4598Z" fill="white"/>
<path d="M50.9683 26.967H46.7985L53.0433 18.0839L47.7188 10.4597H51.8613L54.1713 13.8719C54.413 14.2215 54.6274 14.5564 54.807 14.8817C54.9933 15.2069 55.1663 15.5388 55.3119 15.8744C55.4501 15.5943 55.6091 15.3 55.7894 14.9925C55.9691 14.6887 56.1975 14.3006 56.4739 13.8379L58.7625 10.4597H62.8703L57.5451 18.1186L63.7418 26.967H59.62L56.5627 22.6271L56.4244 22.4201C55.8294 21.5279 55.4494 20.8426 55.2764 20.3666C55.0406 20.8086 54.8203 21.2167 54.6126 21.5937C54.3983 21.9699 54.1772 22.3225 53.9629 22.6478L50.9683 26.967Z" fill="white"/>
<path d="M81.8739 19.2697H68.7064C68.7966 20.805 69.2601 22.004 70.0762 22.8696C70.9055 23.7264 71.9981 24.1551 73.3678 24.1551C74.5853 24.1551 75.6017 23.9031 76.4104 23.4041C77.2265 22.9 77.9317 22.0883 78.5334 20.9632L81.7283 22.7174C80.8013 24.3739 79.6541 25.6143 78.2777 26.4267C76.9079 27.2398 75.3038 27.6442 73.458 27.6442C70.8094 27.6442 68.7005 26.8384 67.1371 25.2203C65.5677 23.6096 64.7856 21.4548 64.7856 18.7582C64.7856 16.168 65.5884 14.0457 67.2058 12.3788C68.8239 10.7089 70.9055 9.87585 73.444 9.87585C76.0926 9.87585 78.1668 10.6402 79.6467 12.1615C81.1266 13.6857 81.8739 15.8191 81.8739 18.5615V19.2697ZM77.9524 16.7527C77.8068 15.553 77.3507 14.64 76.6041 14.0139C75.8427 13.3849 74.8196 13.0737 73.5053 13.0737C72.2746 13.0737 71.2788 13.3782 70.5249 13.9866C69.7709 14.5987 69.2453 15.5182 68.9481 16.7527H77.9524Z" fill="white"/>
<path d="M89.7849 0H86.0083V26.967H89.7849V0Z" fill="white"/>
<path d="M40.9359 33.821L41.7002 33.4093C41.7556 33.6089 41.8591 33.7597 42.0099 33.8639C42.1607 33.9674 42.3551 34.0191 42.5932 34.0191C42.7994 34.0191 42.9583 33.9718 43.0744 33.8787C43.1904 33.7841 43.2488 33.6554 43.2488 33.4943C43.2488 33.277 43.0411 33.0922 42.6249 32.9369C42.4845 32.8874 42.3751 32.8445 42.2997 32.8113C41.8709 32.6339 41.5745 32.4542 41.4038 32.2716C41.2345 32.0891 41.1487 31.868 41.1487 31.6064C41.1487 31.2508 41.2877 30.961 41.5693 30.7385C41.8488 30.5175 42.2191 30.4059 42.6819 30.4059C42.9901 30.4059 43.2562 30.4635 43.4765 30.5781C43.699 30.6912 43.8602 30.8546 43.9607 31.0645L43.3072 31.5088C43.2599 31.3839 43.1786 31.2833 43.0574 31.2101C42.9384 31.1362 42.7994 31.0993 42.6419 31.0993C42.4675 31.0993 42.327 31.1399 42.2213 31.2234C42.1156 31.3062 42.0639 31.4156 42.0639 31.5531C42.0639 31.7601 42.2997 31.9494 42.7728 32.1208C42.9221 32.1741 43.0359 32.2177 43.118 32.2502C43.4883 32.3973 43.753 32.5622 43.9119 32.7462C44.0716 32.9295 44.1536 33.1602 44.1536 33.4344C44.1536 33.8343 44.008 34.1455 43.716 34.371C43.4277 34.5979 43.0293 34.711 42.5214 34.711C42.1297 34.711 41.8044 34.6378 41.545 34.4922C41.2862 34.3466 41.0837 34.1226 40.9359 33.821Z" fill="white"/>
<path d="M49.2926 34.7116V31.5094H48.5889V30.7118H49.2926V29.1986H50.2055V30.7118H50.9107V31.5094H50.2055V34.7116H49.2926Z" fill="white"/>
<path d="M56.2596 30.5479V32.8017C56.2596 33.1905 56.3402 33.4685 56.5006 33.6377C56.6595 33.8063 56.9212 33.8898 57.2797 33.8898C57.6397 33.8898 57.8999 33.8063 58.0588 33.6377C58.2215 33.4685 58.2998 33.1905 58.2998 32.8017V30.5479H59.2164V32.5274C59.2164 33.2918 59.0627 33.8469 58.7559 34.1921C58.4491 34.5388 57.9613 34.7118 57.2878 34.7118C56.6056 34.7118 56.1103 34.5396 55.805 34.1981C55.4967 33.8543 55.3459 33.297 55.3459 32.5274V30.5479H56.2596Z" fill="white"/>
<path d="M66.7977 28.0138H67.7121V34.5476H66.7977V34.0317C66.6329 34.2616 66.4437 34.4323 66.2241 34.5447C66.006 34.6563 65.7569 34.7125 65.4746 34.7125C64.9083 34.7125 64.4648 34.5188 64.1395 34.1322C63.8143 33.7463 63.6517 33.2163 63.6517 32.5437C63.6517 31.905 63.8173 31.389 64.1506 30.9965C64.4803 30.604 64.915 30.4073 65.4487 30.4073C65.7754 30.4073 66.0548 30.4761 66.2862 30.6114C66.5176 30.7466 66.6883 30.9425 66.7963 31.1968V28.0138H66.7977ZM66.8229 32.5333C66.8229 32.1186 66.726 31.7948 66.5346 31.5635C66.3402 31.3321 66.0718 31.2168 65.7274 31.2168C65.3822 31.2168 65.1101 31.3358 64.9128 31.5746C64.7132 31.8133 64.6141 32.1445 64.6141 32.5673C64.6141 32.9953 64.7095 33.3235 64.9024 33.5556C65.0916 33.787 65.3607 33.9023 65.7104 33.9023C66.0408 33.9023 66.3099 33.7767 66.5161 33.5275C66.7186 33.277 66.8229 32.9458 66.8229 32.5333Z" fill="white"/>
<path d="M72.1481 28.9828C72.1481 28.8283 72.2073 28.6937 72.3189 28.5814C72.4327 28.469 72.5702 28.4128 72.7284 28.4128C72.891 28.4128 73.0271 28.4675 73.1372 28.5747C73.2444 28.6834 73.2983 28.8201 73.2983 28.9828C73.2983 29.1469 73.2429 29.2836 73.1342 29.3952C73.0234 29.5069 72.8896 29.563 72.7291 29.563C72.5717 29.563 72.4342 29.5054 72.3196 29.3908C72.2065 29.2755 72.1481 29.1402 72.1481 28.9828ZM72.2775 30.7118H73.1941V34.7116H72.2775V30.7118Z" fill="white"/>
<path d="M77.7336 32.5503C77.7336 32.2591 77.789 31.9819 77.9014 31.7209C78.0123 31.4615 78.1712 31.2301 78.3789 31.0276C78.5837 30.828 78.8217 30.6749 79.0878 30.567C79.3547 30.4598 79.6326 30.4066 79.9253 30.4066C80.2255 30.4066 80.5086 30.4606 80.7747 30.567C81.0393 30.6749 81.2773 30.8317 81.4902 31.0401C81.698 31.2449 81.8591 31.477 81.9692 31.7357C82.0779 31.9944 82.1333 32.2665 82.1333 32.5503C82.1333 32.8453 82.0779 33.1232 81.9707 33.3819C81.8621 33.6406 81.7046 33.8698 81.4961 34.0701C81.2766 34.2815 81.0356 34.4405 80.7673 34.5491C80.499 34.6571 80.2195 34.711 79.9246 34.711C79.6348 34.711 79.3561 34.6571 79.09 34.5491C78.8239 34.4405 78.5874 34.2845 78.3774 34.0783C78.1668 33.8698 78.0071 33.637 77.897 33.3775C77.789 33.1188 77.7336 32.8438 77.7336 32.5503ZM81.1716 32.5585C81.1716 32.1874 81.0526 31.8725 80.8094 31.6145C80.5714 31.3565 80.2802 31.2279 79.9335 31.2279C79.5897 31.2279 79.2985 31.3565 79.0568 31.6145C78.815 31.8725 78.6953 32.1874 78.6953 32.5585C78.6953 32.9318 78.8158 33.2459 79.0568 33.5039C79.2985 33.7611 79.5897 33.8898 79.9335 33.8898C80.2765 33.8898 80.5684 33.7611 80.8094 33.5039C81.0511 33.2459 81.1716 32.9318 81.1716 32.5585Z" fill="white"/>
<path d="M86.5693 33.821L87.3337 33.4093C87.3876 33.6089 87.4926 33.7597 87.6434 33.8639C87.7949 33.9674 87.9871 34.0191 88.2266 34.0191C88.4307 34.0191 88.5903 33.9718 88.7071 33.8787C88.8232 33.7841 88.8816 33.6554 88.8816 33.4943C88.8816 33.277 88.6724 33.0922 88.2569 32.9369C88.1165 32.8874 88.0093 32.8445 87.9317 32.8113C87.5044 32.6339 87.2065 32.4542 87.0373 32.2716C86.8665 32.0891 86.7822 31.868 86.7822 31.6064C86.7822 31.2508 86.9212 30.961 87.2014 30.7385C87.483 30.5175 87.8511 30.4059 88.3153 30.4059C88.6236 30.4059 88.8904 30.4635 89.11 30.5781C89.331 30.6912 89.4922 30.8546 89.5927 31.0645L88.9407 31.5088C88.8919 31.3839 88.8099 31.2833 88.6894 31.2101C88.5704 31.1362 88.4329 31.0993 88.274 31.0993C88.0995 31.0993 87.9605 31.1399 87.8556 31.2234C87.7499 31.3062 87.6981 31.4156 87.6981 31.5531C87.6981 31.7601 87.9324 31.9494 88.407 32.1208C88.5541 32.1741 88.6702 32.2177 88.75 32.2502C89.1203 32.3973 89.3865 32.5622 89.5454 32.7462C89.7051 32.9295 89.7856 33.1602 89.7856 33.4344C89.7856 33.8343 89.64 34.1455 89.3495 34.371C89.0597 34.5979 88.6613 34.711 88.152 34.711C87.7617 34.711 87.4364 34.6378 87.1784 34.4922C86.9175 34.3466 86.715 34.1226 86.5693 33.821Z" fill="white"/>
</svg>
