<svg width="135" height="28" viewBox="0 0 135 28" fill="none" xmlns="http://www.w3.org/2000/svg">
<path d="M63.5 14.5C63.5 21.6797 57.6797 27.5 50.5 27.5C43.3203 27.5 37.5 21.6797 37.5 14.5C37.5 7.3203 43.3203 1.5 50.5 1.5C57.6797 1.5 63.5 7.3203 63.5 14.5Z" stroke="white"/>
<path d="M47.8732 19C52.5211 19 55.0563 15.1549 55.0563 11.8169C55.0563 11.7042 55.0563 11.6056 55.0423 11.493C55.5352 11.1408 55.9577 10.6901 56.2958 10.1831C55.8451 10.3803 55.3521 10.5211 54.8451 10.5775C55.3662 10.2676 55.7606 9.77465 55.9577 9.1831C55.4648 9.47887 54.9296 9.67606 54.3521 9.80282C53.8873 9.30986 53.2394 9 52.507 9C51.1127 9 49.9859 10.1268 49.9859 11.5211C49.9859 11.7183 50.0141 11.9155 50.0563 12.0986C47.9577 12 46.0986 10.9859 44.8592 9.46479C44.6479 9.83099 44.5211 10.2676 44.5211 10.7324C44.5211 11.6056 44.9718 12.3803 45.6479 12.831C45.2394 12.8169 44.8451 12.7042 44.507 12.5211C44.507 12.5352 44.507 12.5352 44.507 12.5493C44.507 13.7746 45.3803 14.7887 46.5352 15.0282C46.3239 15.0845 46.0986 15.1127 45.8732 15.1127C45.7042 15.1127 45.5493 15.0986 45.3944 15.0704C45.7183 16.0704 46.6479 16.8028 47.7465 16.8169C46.8873 17.493 45.7887 17.9014 44.6056 17.9014C44.4084 17.9014 44.1972 17.8873 44 17.8732C45.1127 18.5775 46.4366 19 47.8732 19Z" fill="white"/>
<path d="M99.5 14.5C99.5 21.6797 93.6797 27.5 86.5 27.5C79.3203 27.5 73.5 21.6797 73.5 14.5C73.5 7.3203 79.3203 1.5 86.5 1.5C93.6797 1.5 99.5 7.3203 99.5 14.5Z" stroke="white"/>
<path d="M92.9715 10.5665C92.8133 9.94937 92.3228 9.47469 91.7057 9.30063C90.5981 9 86.1361 9 86.1361 9C86.1361 9 81.6899 9 80.5665 9.30063C79.9494 9.45886 79.4747 9.94937 79.3006 10.5665C79 11.6741 79 14 79 14C79 14 79 16.3101 79.3006 17.4335C79.4589 18.0506 79.9494 18.5253 80.5665 18.6994C81.6741 19 86.1361 19 86.1361 19C86.1361 19 90.5823 19 91.7057 18.6994C92.3228 18.5411 92.7975 18.0506 92.9715 17.4335C93.2722 16.326 93.2722 14 93.2722 14C93.2722 14 93.2722 11.6741 92.9715 10.5665ZM84.7279 16.1361V11.8639L88.4304 14L84.7279 16.1361Z" fill="white"/>
<path d="M134.5 14.5C134.5 21.6797 128.68 27.5 121.5 27.5C114.32 27.5 108.5 21.6797 108.5 14.5C108.5 7.3203 114.32 1.5 121.5 1.5C128.68 1.5 134.5 7.3203 134.5 14.5Z" stroke="white"/>
<path d="M121.532 13.2176C121.67 13.0674 121.782 12.9047 121.933 12.767C122.371 12.354 122.884 12.1412 123.497 12.1537C123.835 12.1537 124.161 12.1788 124.473 12.2789C125.212 12.4917 125.637 12.9923 125.838 13.7182C125.988 14.2564 126.013 14.8071 126.025 15.3578C126.025 16.5218 126.025 17.6858 126.025 18.8624C126.025 18.975 126 19 125.888 19C125.287 19 124.686 19 124.085 19C123.985 19 123.96 18.9625 123.96 18.8624C123.96 17.7484 123.96 16.647 123.96 15.5331C123.96 15.2577 123.948 14.9824 123.86 14.707C123.722 14.2064 123.359 13.956 122.834 13.9811C122.12 14.0186 121.745 14.3691 121.657 15.095C121.632 15.2702 121.62 15.4455 121.62 15.6207C121.62 16.6971 121.62 17.786 121.62 18.8624C121.62 18.975 121.595 19 121.482 19C120.881 19 120.268 19 119.667 19C119.567 19 119.542 18.975 119.542 18.8749C119.542 16.7346 119.542 14.5944 119.542 12.4541C119.542 12.354 119.58 12.3289 119.68 12.3289C120.256 12.3289 120.831 12.3289 121.407 12.3289C121.507 12.3289 121.545 12.3665 121.532 12.4666C121.532 12.7044 121.532 12.9548 121.532 13.2176Z" fill="white"/>
<path d="M118.24 15.6583C118.24 16.7222 118.24 17.7736 118.24 18.8374C118.24 18.9501 118.215 18.9876 118.09 18.9876C117.489 18.9751 116.889 18.9876 116.288 18.9876C116.188 18.9876 116.163 18.9626 116.163 18.8625C116.163 16.7222 116.163 14.5819 116.163 12.4417C116.163 12.3541 116.188 12.3165 116.275 12.3165C116.889 12.3165 117.489 12.3165 118.103 12.3165C118.215 12.3165 118.24 12.3666 118.24 12.4667C118.24 13.5306 118.24 14.5945 118.24 15.6583Z" fill="white"/>
<path d="M118.403 10.189C118.403 10.8524 117.865 11.3906 117.202 11.3906C116.551 11.3906 116 10.8524 116 10.2015C116 9.53819 116.538 9 117.202 9C117.865 9 118.403 9.53819 118.403 10.189Z" fill="white"/>
<path d="M27.5 14C27.5 21.4558 21.4558 27.5 14 27.5C6.54416 27.5 0.5 21.4558 0.5 14C0.5 6.54415 6.54416 0.5 14 0.5C21.4558 0.5 27.5 6.54415 27.5 14Z" stroke="white"/>
<path d="M16.539 15.2541L16.9029 12.9199H14.6343V11.3996C14.6343 10.7652 14.9497 10.1427 15.9688 10.1427H17V8.15562C17 8.15562 16.0659 8 15.1681 8C13.2998 8 12.0745 9.11326 12.0745 11.1483V12.9319H10V15.2661H12.0745V20.9042C12.487 20.9641 12.9237 21 13.3484 21C13.773 21 14.2097 20.9641 14.6222 20.9042V15.2541H16.539Z" fill="white"/>
</svg>
