<svg width="117" height="52" viewBox="0 0 117 52" fill="none" xmlns="http://www.w3.org/2000/svg">
<path d="M0 0L7.44559 10.9454C7.89245 10.1363 8.78903 8.79191 10.1363 6.90937L5.38239 0H0Z" fill="white"/>
<path d="M11.9506 10.1277C11.1174 11.6306 10.6168 13.2979 10.1997 15.1324L13.786 20.3034H18.8734L11.9506 10.1277Z" fill="white"/>
<path d="M9.61544 9.29168C7.69638 12.2121 6.36256 14.9652 5.69661 17.3014C4.94513 20.3025 5.19498 22.6395 6.44712 24.4731L8.86396 27.9787C9.03213 28.144 9.11381 28.3093 9.28198 28.6456C9.61544 29.0627 9.78169 29.5624 9.94986 30.0611C10.4496 31.7303 10.2824 33.4831 9.61544 35.4012C9.61544 35.4012 9.44919 35.8202 9.03213 36.737C8.53051 37.821 8.0308 39.0712 7.36389 40.3224C5.52748 44.2431 3.36049 48.1648 0.856201 52.0001C4.27725 48.2465 7.36389 44.2422 10.1997 39.9072C11.1174 38.4043 11.9506 36.9878 12.7857 35.7347C12.9529 35.3195 13.2027 34.9006 13.3671 34.4835L13.6188 34.15V34.0664C14.3713 32.2329 14.453 30.482 13.9523 28.7292C13.7861 28.2266 13.5352 27.6414 13.2018 27.2263C13.1182 26.9783 13.0375 26.8928 13.0375 26.8092L12.9519 26.7266H12.8683V26.6458L10.4496 23.1402C8.61411 20.3034 8.69772 16.1347 10.8657 10.6284C12.2005 7.37647 13.9523 4.12262 16.2875 0.703491L16.2058 0.789018C15.7061 1.2868 15.1199 1.95467 14.453 2.70615C12.6194 4.95674 10.9502 7.12469 9.61544 9.29168Z" fill="white"/>
<path d="M25.6982 45.1253V13.5978H30.6078V17.0717C31.1825 15.7186 32.0954 14.6808 33.3543 13.9437C34.6218 13.2057 36.1228 12.8376 37.8757 12.8376C40.7259 12.8376 43.0409 13.8889 44.8167 15.9973C46.5878 18.1057 47.4729 20.8694 47.4729 24.2991C47.4729 27.9095 46.6013 30.7501 44.8619 32.8229C43.1177 34.8996 40.7259 35.9374 37.6959 35.9374C36.1863 35.9374 34.8467 35.6367 33.6733 35.0389C32.5038 34.4354 31.4842 33.5225 30.6078 32.2867V45.1243H25.6982V45.1253ZM30.4445 24.2501C30.4445 26.4786 31.0018 28.2603 32.1079 29.596C33.2178 30.9298 34.6747 31.5948 36.4813 31.5948C38.334 31.5948 39.7668 30.976 40.7874 29.7353C41.8031 28.4899 42.3115 26.7265 42.3115 24.4308C42.3115 22.161 41.7772 20.3851 40.7163 19.1032C39.6592 17.8222 38.1985 17.1841 36.3467 17.1841C34.4902 17.1841 33.0477 17.8049 32.0041 19.0446C30.9672 20.2909 30.4445 22.0255 30.4445 24.2501Z" fill="white"/>
<path d="M52.2143 4.32052C52.2143 3.49312 52.5199 2.76951 53.1311 2.16698C53.7461 1.56542 54.4726 1.26367 55.3269 1.26367C56.1985 1.26367 56.9269 1.55581 57.5102 2.13143C58.0954 2.7157 58.3818 3.44892 58.3818 4.32052C58.3818 5.20173 58.0858 5.93398 57.5016 6.53171C56.9086 7.12943 56.1889 7.43118 55.3259 7.43118C54.4707 7.43118 53.7451 7.12078 53.1301 6.5048C52.5208 5.89362 52.2143 5.16521 52.2143 4.32052ZM52.912 13.5977H57.8177V35.0571H52.912V13.5977Z" fill="white"/>
<path d="M66.2588 35.0572H60.838L68.9563 23.5092L62.0344 13.5978H67.4197L70.4227 18.0336C70.737 18.4882 71.0156 18.9235 71.2492 19.3463C71.4913 19.7691 71.7162 20.2006 71.9055 20.6369C72.0852 20.2727 72.2918 19.8902 72.5263 19.4904C72.7598 19.0955 73.0567 18.591 73.4161 17.9894L76.3913 13.5978H81.7314L74.8086 23.5544L82.8644 35.0572H77.506L73.5315 29.4153L73.3518 29.1463C72.5782 27.9864 72.0842 27.0956 71.8594 26.4767C71.5528 27.0514 71.2665 27.5818 70.9964 28.0719C70.7177 28.561 70.4304 29.0194 70.1517 29.4422L66.2588 35.0572Z" fill="white"/>
<path d="M106.436 25.0506H89.3183C89.4355 27.0466 90.0381 28.6053 91.099 29.7306C92.1772 30.8443 93.5975 31.4017 95.3782 31.4017C96.9609 31.4017 98.2822 31.074 99.3335 30.4253C100.394 29.7699 101.311 28.7148 102.093 27.2522L106.247 29.5326C105.042 31.6861 103.55 33.2986 101.761 34.3547C99.9803 35.4118 97.895 35.9375 95.4954 35.9375C92.0523 35.9375 89.3106 34.89 87.2782 32.7864C85.238 30.6925 84.2213 27.8913 84.2213 24.3856C84.2213 21.0184 85.2649 18.2595 87.3675 16.0925C89.4711 13.9216 92.1772 12.8386 95.4772 12.8386C98.9203 12.8386 101.617 13.8323 103.541 15.8099C105.465 17.7915 106.436 20.5648 106.436 24.13V25.0506ZM101.338 21.7785C101.149 20.2189 100.556 19.0321 99.5853 18.2181C98.5955 17.4003 97.2655 16.9958 95.5569 16.9958C93.9569 16.9958 92.6625 17.3917 91.6823 18.1826C90.7021 18.9783 90.0188 20.1737 89.6325 21.7785H101.338Z" fill="white"/>
<path d="M116.72 0H111.811V35.0571H116.72V0Z" fill="white"/>
<path d="M53.2166 43.9673L54.2103 43.432C54.2823 43.6915 54.4169 43.8875 54.6129 44.023C54.8089 44.1575 55.0617 44.2248 55.3711 44.2248C55.6392 44.2248 55.8458 44.1633 55.9967 44.0422C56.1476 43.9192 56.2235 43.752 56.2235 43.5425C56.2235 43.26 55.9535 43.0198 55.4124 42.818C55.2298 42.7536 55.0876 42.6978 54.9896 42.6546C54.4322 42.424 54.0469 42.1904 53.8249 41.9531C53.6048 41.7157 53.4934 41.4284 53.4934 41.0882C53.4934 40.626 53.674 40.2493 54.0402 39.96C54.4034 39.6727 54.8849 39.5276 55.4864 39.5276C55.8871 39.5276 56.2331 39.6025 56.5195 39.7515C56.8087 39.8985 57.0182 40.1109 57.1489 40.3838L56.2994 40.9614C56.2379 40.799 56.1322 40.6683 55.9746 40.5731C55.8199 40.477 55.6392 40.429 55.4345 40.429C55.2077 40.429 55.0252 40.4818 54.8877 40.5904C54.7503 40.6981 54.683 40.8403 54.683 41.019C54.683 41.2881 54.9896 41.5341 55.6046 41.757C55.7987 41.8262 55.9467 41.8829 56.0534 41.9252C56.5348 42.1164 56.8789 42.3307 57.0855 42.57C57.293 42.8083 57.3997 43.1082 57.3997 43.4647C57.3997 43.9846 57.2104 44.3891 56.8308 44.6822C56.456 44.9772 55.9381 45.1243 55.2779 45.1243C54.7686 45.1243 54.3458 45.0291 54.0085 44.8398C53.6721 44.6505 53.4088 44.3593 53.2166 43.9673Z" fill="white"/>
<path d="M64.0804 45.1252V40.9622H63.1655V39.9254H64.0804V37.9583H65.2672V39.9254H66.1839V40.9622H65.2672V45.1252H64.0804Z" fill="white"/>
<path d="M73.1375 39.712V42.642C73.1375 43.1475 73.2422 43.5088 73.4507 43.7289C73.6574 43.948 73.9975 44.0566 74.4636 44.0566C74.9316 44.0566 75.2699 43.948 75.4765 43.7289C75.6879 43.5088 75.7897 43.1475 75.7897 42.642V39.712H76.9813V42.2855C76.9813 43.2792 76.7815 44.0008 76.3827 44.4496C75.9839 44.9003 75.3496 45.1252 74.4742 45.1252C73.5872 45.1252 72.9434 44.9013 72.5465 44.4573C72.1457 44.0105 71.9497 43.2859 71.9497 42.2855V39.712H73.1375Z" fill="white"/>
<path d="M86.8371 36.4178H88.0258V44.9119H86.8371V44.2411C86.6228 44.54 86.3768 44.7619 86.0914 44.908C85.8079 45.0531 85.484 45.1262 85.1169 45.1262C84.3808 45.1262 83.8043 44.8744 83.3814 44.3718C82.9586 43.8702 82.7472 43.1812 82.7472 42.3067C82.7472 41.4764 82.9624 40.8056 83.3958 40.2954C83.8244 39.7851 84.3895 39.5295 85.0833 39.5295C85.5081 39.5295 85.8713 39.6188 86.1721 39.7947C86.4729 39.9706 86.6949 40.2252 86.8352 40.5558V36.4178H86.8371ZM86.8698 42.2932C86.8698 41.7541 86.7439 41.3332 86.495 41.0324C86.2422 40.7316 85.8934 40.5817 85.4456 40.5817C84.9968 40.5817 84.6432 40.7364 84.3866 41.0468C84.1271 41.3572 83.9984 41.7877 83.9984 42.3374C83.9984 42.8938 84.1223 43.3205 84.3732 43.6222C84.6192 43.923 84.969 44.0729 85.4235 44.0729C85.853 44.0729 86.2028 43.9096 86.471 43.5857C86.7343 43.26 86.8698 42.8294 86.8698 42.2932Z" fill="white"/>
<path d="M93.7926 37.6777C93.7926 37.4768 93.8694 37.3019 94.0146 37.1559C94.1625 37.0098 94.3413 36.9368 94.5469 36.9368C94.7583 36.9368 94.9352 37.0079 95.0784 37.1472C95.2177 37.2885 95.2878 37.4663 95.2878 37.6777C95.2878 37.891 95.2158 38.0688 95.0745 38.2139C94.9304 38.359 94.7564 38.432 94.5479 38.432C94.3432 38.432 94.1645 38.3571 94.0155 38.2081C93.8685 38.0582 93.7926 37.8824 93.7926 37.6777ZM93.9607 39.9254H95.1523V45.1252H93.9607V39.9254Z" fill="white"/>
<path d="M101.054 42.3154C101.054 41.9368 101.126 41.5764 101.272 41.2372C101.416 40.8999 101.623 40.5991 101.893 40.3358C102.159 40.0763 102.468 39.8774 102.814 39.7371C103.161 39.5978 103.522 39.5286 103.903 39.5286C104.293 39.5286 104.661 39.5987 105.007 39.7371C105.351 39.8774 105.661 40.0811 105.937 40.3521C106.207 40.6183 106.417 40.92 106.56 41.2564C106.701 41.5927 106.773 41.9464 106.773 42.3154C106.773 42.6988 106.701 43.0601 106.562 43.3965C106.421 43.7328 106.216 44.0307 105.945 44.2911C105.66 44.566 105.346 44.7726 104.997 44.9138C104.649 45.0541 104.285 45.1243 103.902 45.1243C103.525 45.1243 103.163 45.0541 102.817 44.9138C102.471 44.7726 102.164 44.5698 101.891 44.3017C101.617 44.0307 101.409 43.728 101.266 43.3907C101.126 43.0544 101.054 42.6969 101.054 42.3154ZM105.523 42.3259C105.523 41.8435 105.368 41.4342 105.052 41.0988C104.743 40.7634 104.364 40.5962 103.913 40.5962C103.467 40.5962 103.088 40.7634 102.774 41.0988C102.46 41.4342 102.304 41.8435 102.304 42.3259C102.304 42.8112 102.461 43.2196 102.774 43.555C103.088 43.8894 103.467 44.0567 103.913 44.0567C104.359 44.0567 104.739 43.8894 105.052 43.555C105.366 43.2196 105.523 42.8112 105.523 42.3259Z" fill="white"/>
<path d="M112.54 43.9673L113.534 43.432C113.604 43.6915 113.74 43.8875 113.936 44.023C114.133 44.1575 114.383 44.2248 114.695 44.2248C114.96 44.2248 115.167 44.1633 115.319 44.0422C115.47 43.9192 115.546 43.752 115.546 43.5425C115.546 43.26 115.274 43.0198 114.734 42.818C114.551 42.7536 114.412 42.6978 114.311 42.6546C113.756 42.424 113.368 42.1904 113.148 41.9531C112.926 41.7157 112.817 41.4284 112.817 41.0882C112.817 40.626 112.998 40.2493 113.362 39.96C113.728 39.6727 114.206 39.5276 114.81 39.5276C115.211 39.5276 115.558 39.6025 115.843 39.7515C116.13 39.8985 116.34 40.1109 116.47 40.3838L115.623 40.9614C115.559 40.799 115.453 40.6683 115.296 40.5731C115.141 40.477 114.963 40.429 114.756 40.429C114.529 40.429 114.349 40.4818 114.212 40.5904C114.075 40.6981 114.008 40.8403 114.008 41.019C114.008 41.2881 114.312 41.5341 114.929 41.757C115.12 41.8262 115.271 41.8829 115.375 41.9252C115.856 42.1164 116.202 42.3307 116.409 42.57C116.617 42.8083 116.721 43.1082 116.721 43.4647C116.721 43.9846 116.532 44.3891 116.154 44.6822C115.778 44.9772 115.26 45.1243 114.598 45.1243C114.09 45.1243 113.667 45.0291 113.332 44.8398C112.993 44.6505 112.729 44.3593 112.54 43.9673Z" fill="white"/>
</svg>
