<svg width="172" height="224" viewBox="0 0 172 224" fill="none" xmlns="http://www.w3.org/2000/svg">
<path d="M0.599312 1.99768C0.599312 1.1986 1.19862 0.599292 1.9977 0.599292C2.79678 0.599293 3.3961 1.19861 3.3961 1.99769C3.3961 2.79677 2.79679 3.39608 1.99771 3.39608C1.19863 3.39608 0.599312 2.79676 0.599312 1.99768Z" fill="black" fill-opacity="0.2"/>
<path d="M0.599312 11.9977C0.599312 11.1986 1.19862 10.5993 1.9977 10.5993C2.79678 10.5993 3.3961 11.1986 3.3961 11.9977C3.3961 12.7968 2.79679 13.3961 1.99771 13.3961C1.19863 13.3961 0.599312 12.7968 0.599312 11.9977Z" fill="black" fill-opacity="0.2"/>
<path d="M0.599312 21.9977C0.599312 21.1986 1.19862 20.5993 1.9977 20.5993C2.79678 20.5993 3.3961 21.1986 3.3961 21.9977C3.3961 22.7968 2.79679 23.3961 1.99771 23.3961C1.19863 23.3961 0.599312 22.7968 0.599312 21.9977Z" fill="black" fill-opacity="0.2"/>
<path d="M0.599312 31.9977C0.599312 31.1986 1.19862 30.5993 1.9977 30.5993C2.79678 30.5993 3.3961 31.1986 3.3961 31.9977C3.3961 32.7968 2.79679 33.3961 1.99771 33.3961C1.19863 33.3961 0.599312 32.7968 0.599312 31.9977Z" fill="black" fill-opacity="0.2"/>
<path d="M0.599312 41.9977C0.599312 41.1986 1.19862 40.5993 1.9977 40.5993C2.79678 40.5993 3.3961 41.1986 3.3961 41.9977C3.3961 42.7968 2.79679 43.3961 1.99771 43.3961C1.19863 43.3961 0.599312 42.7968 0.599312 41.9977Z" fill="black" fill-opacity="0.2"/>
<path d="M0.599312 51.9977C0.599312 51.1986 1.19862 50.5993 1.9977 50.5993C2.79678 50.5993 3.3961 51.1986 3.3961 51.9977C3.3961 52.7968 2.79679 53.3961 1.99771 53.3961C1.19863 53.3961 0.599312 52.7968 0.599312 51.9977Z" fill="black" fill-opacity="0.2"/>
<path d="M0.599312 61.9977C0.599312 61.1986 1.19862 60.5993 1.9977 60.5993C2.79678 60.5993 3.3961 61.1986 3.3961 61.9977C3.3961 62.7968 2.79679 63.3961 1.99771 63.3961C1.19863 63.3961 0.599312 62.7968 0.599312 61.9977Z" fill="black" fill-opacity="0.2"/>
<path d="M0.599312 71.9977C0.599312 71.1986 1.19862 70.5993 1.9977 70.5993C2.79678 70.5993 3.3961 71.1986 3.3961 71.9977C3.3961 72.7968 2.79679 73.3961 1.99771 73.3961C1.19863 73.3961 0.599312 72.7968 0.599312 71.9977Z" fill="black" fill-opacity="0.2"/>
<path d="M0.599312 81.9977C0.599312 81.1986 1.19862 80.5993 1.9977 80.5993C2.79678 80.5993 3.3961 81.1986 3.3961 81.9977C3.3961 82.7968 2.79679 83.3961 1.99771 83.3961C1.19863 83.3961 0.599312 82.7968 0.599312 81.9977Z" fill="black" fill-opacity="0.2"/>
<path d="M0.599312 91.9977C0.599312 91.1986 1.19862 90.5993 1.9977 90.5993C2.79678 90.5993 3.3961 91.1986 3.3961 91.9977C3.3961 92.7968 2.79679 93.3961 1.99771 93.3961C1.19863 93.3961 0.599312 92.7968 0.599312 91.9977Z" fill="black" fill-opacity="0.2"/>
<path d="M0.599312 101.998C0.599312 101.199 1.19862 100.599 1.9977 100.599C2.79678 100.599 3.3961 101.199 3.3961 101.998C3.3961 102.797 2.79679 103.396 1.99771 103.396C1.19863 103.396 0.599312 102.797 0.599312 101.998Z" fill="black" fill-opacity="0.2"/>
<path d="M0.599312 111.998C0.599312 111.199 1.19862 110.599 1.9977 110.599C2.79678 110.599 3.3961 111.199 3.3961 111.998C3.3961 112.797 2.79679 113.396 1.99771 113.396C1.19863 113.396 0.599312 112.797 0.599312 111.998Z" fill="black" fill-opacity="0.2"/>
<path d="M0.599312 121.998C0.599312 121.199 1.19862 120.599 1.9977 120.599C2.79678 120.599 3.3961 121.199 3.3961 121.998C3.3961 122.797 2.79679 123.396 1.99771 123.396C1.19863 123.396 0.599312 122.797 0.599312 121.998Z" fill="black" fill-opacity="0.2"/>
<path d="M0.599312 131.998C0.599312 131.199 1.19862 130.599 1.9977 130.599C2.79678 130.599 3.3961 131.199 3.3961 131.998C3.3961 132.797 2.79679 133.396 1.99771 133.396C1.19863 133.396 0.599312 132.797 0.599312 131.998Z" fill="black" fill-opacity="0.2"/>
<path d="M0.599312 141.998C0.599312 141.199 1.19862 140.599 1.9977 140.599C2.79678 140.599 3.3961 141.199 3.3961 141.998C3.3961 142.797 2.79679 143.396 1.99771 143.396C1.19863 143.396 0.599312 142.797 0.599312 141.998Z" fill="black" fill-opacity="0.2"/>
<path d="M0.599312 151.998C0.599312 151.199 1.19862 150.599 1.9977 150.599C2.79678 150.599 3.3961 151.199 3.3961 151.998C3.3961 152.797 2.79679 153.396 1.99771 153.396C1.19863 153.396 0.599312 152.797 0.599312 151.998Z" fill="black" fill-opacity="0.2"/>
<path d="M0.599312 161.998C0.599312 161.199 1.19862 160.599 1.9977 160.599C2.79678 160.599 3.3961 161.199 3.3961 161.998C3.3961 162.797 2.79679 163.396 1.99771 163.396C1.19863 163.396 0.599312 162.797 0.599312 161.998Z" fill="black" fill-opacity="0.2"/>
<path d="M0.599312 171.998C0.599312 171.199 1.19862 170.599 1.9977 170.599C2.79678 170.599 3.3961 171.199 3.3961 171.998C3.3961 172.797 2.79679 173.396 1.99771 173.396C1.19863 173.396 0.599312 172.797 0.599312 171.998Z" fill="black" fill-opacity="0.2"/>
<path d="M0.599312 181.998C0.599312 181.199 1.19862 180.599 1.9977 180.599C2.79678 180.599 3.3961 181.199 3.3961 181.998C3.3961 182.797 2.79679 183.396 1.99771 183.396C1.19863 183.396 0.599312 182.797 0.599312 181.998Z" fill="black" fill-opacity="0.2"/>
<path d="M0.599312 191.998C0.599312 191.199 1.19862 190.599 1.9977 190.599C2.79678 190.599 3.3961 191.199 3.3961 191.998C3.3961 192.797 2.79679 193.396 1.99771 193.396C1.19863 193.396 0.599312 192.797 0.599312 191.998Z" fill="black" fill-opacity="0.2"/>
<path d="M0.599312 201.998C0.599312 201.199 1.19862 200.599 1.9977 200.599C2.79678 200.599 3.3961 201.199 3.3961 201.998C3.3961 202.797 2.79679 203.396 1.99771 203.396C1.19863 203.396 0.599312 202.797 0.599312 201.998Z" fill="black" fill-opacity="0.2"/>
<path d="M0.599312 211.998C0.599312 211.199 1.19862 210.599 1.9977 210.599C2.79678 210.599 3.3961 211.199 3.3961 211.998C3.3961 212.797 2.79679 213.396 1.99771 213.396C1.19863 213.396 0.599312 212.797 0.599312 211.998Z" fill="black" fill-opacity="0.2"/>
<path d="M0.599312 221.998C0.599312 221.199 1.19862 220.599 1.9977 220.599C2.79678 220.599 3.3961 221.199 3.3961 221.998C3.3961 222.797 2.79679 223.396 1.99771 223.396C1.19863 223.396 0.599312 222.797 0.599312 221.998Z" fill="black" fill-opacity="0.2"/>
<path d="M14.5993 1.99768C14.5993 1.1986 15.1986 0.599292 15.9977 0.599292C16.7968 0.599293 17.3961 1.19861 17.3961 1.99769C17.3961 2.79677 16.7968 3.39608 15.9977 3.39608C15.1986 3.39608 14.5993 2.79676 14.5993 1.99768Z" fill="black" fill-opacity="0.2"/>
<path d="M14.5993 11.9977C14.5993 11.1986 15.1986 10.5993 15.9977 10.5993C16.7968 10.5993 17.3961 11.1986 17.3961 11.9977C17.3961 12.7968 16.7968 13.3961 15.9977 13.3961C15.1986 13.3961 14.5993 12.7968 14.5993 11.9977Z" fill="black" fill-opacity="0.2"/>
<path d="M14.5993 21.9977C14.5993 21.1986 15.1986 20.5993 15.9977 20.5993C16.7968 20.5993 17.3961 21.1986 17.3961 21.9977C17.3961 22.7968 16.7968 23.3961 15.9977 23.3961C15.1986 23.3961 14.5993 22.7968 14.5993 21.9977Z" fill="black" fill-opacity="0.2"/>
<path d="M14.5993 31.9977C14.5993 31.1986 15.1986 30.5993 15.9977 30.5993C16.7968 30.5993 17.3961 31.1986 17.3961 31.9977C17.3961 32.7968 16.7968 33.3961 15.9977 33.3961C15.1986 33.3961 14.5993 32.7968 14.5993 31.9977Z" fill="black" fill-opacity="0.2"/>
<path d="M14.5993 41.9977C14.5993 41.1986 15.1986 40.5993 15.9977 40.5993C16.7968 40.5993 17.3961 41.1986 17.3961 41.9977C17.3961 42.7968 16.7968 43.3961 15.9977 43.3961C15.1986 43.3961 14.5993 42.7968 14.5993 41.9977Z" fill="black" fill-opacity="0.2"/>
<path d="M14.5993 51.9977C14.5993 51.1986 15.1986 50.5993 15.9977 50.5993C16.7968 50.5993 17.3961 51.1986 17.3961 51.9977C17.3961 52.7968 16.7968 53.3961 15.9977 53.3961C15.1986 53.3961 14.5993 52.7968 14.5993 51.9977Z" fill="black" fill-opacity="0.2"/>
<path d="M14.5993 61.9977C14.5993 61.1986 15.1986 60.5993 15.9977 60.5993C16.7968 60.5993 17.3961 61.1986 17.3961 61.9977C17.3961 62.7968 16.7968 63.3961 15.9977 63.3961C15.1986 63.3961 14.5993 62.7968 14.5993 61.9977Z" fill="black" fill-opacity="0.2"/>
<path d="M14.5993 71.9977C14.5993 71.1986 15.1986 70.5993 15.9977 70.5993C16.7968 70.5993 17.3961 71.1986 17.3961 71.9977C17.3961 72.7968 16.7968 73.3961 15.9977 73.3961C15.1986 73.3961 14.5993 72.7968 14.5993 71.9977Z" fill="black" fill-opacity="0.2"/>
<path d="M14.5993 81.9977C14.5993 81.1986 15.1986 80.5993 15.9977 80.5993C16.7968 80.5993 17.3961 81.1986 17.3961 81.9977C17.3961 82.7968 16.7968 83.3961 15.9977 83.3961C15.1986 83.3961 14.5993 82.7968 14.5993 81.9977Z" fill="black" fill-opacity="0.2"/>
<path d="M14.5993 91.9977C14.5993 91.1986 15.1986 90.5993 15.9977 90.5993C16.7968 90.5993 17.3961 91.1986 17.3961 91.9977C17.3961 92.7968 16.7968 93.3961 15.9977 93.3961C15.1986 93.3961 14.5993 92.7968 14.5993 91.9977Z" fill="black" fill-opacity="0.2"/>
<path d="M14.5993 101.998C14.5993 101.199 15.1986 100.599 15.9977 100.599C16.7968 100.599 17.3961 101.199 17.3961 101.998C17.3961 102.797 16.7968 103.396 15.9977 103.396C15.1986 103.396 14.5993 102.797 14.5993 101.998Z" fill="black" fill-opacity="0.2"/>
<path d="M14.5993 111.998C14.5993 111.199 15.1986 110.599 15.9977 110.599C16.7968 110.599 17.3961 111.199 17.3961 111.998C17.3961 112.797 16.7968 113.396 15.9977 113.396C15.1986 113.396 14.5993 112.797 14.5993 111.998Z" fill="black" fill-opacity="0.2"/>
<path d="M14.5993 121.998C14.5993 121.199 15.1986 120.599 15.9977 120.599C16.7968 120.599 17.3961 121.199 17.3961 121.998C17.3961 122.797 16.7968 123.396 15.9977 123.396C15.1986 123.396 14.5993 122.797 14.5993 121.998Z" fill="black" fill-opacity="0.2"/>
<path d="M14.5993 131.998C14.5993 131.199 15.1986 130.599 15.9977 130.599C16.7968 130.599 17.3961 131.199 17.3961 131.998C17.3961 132.797 16.7968 133.396 15.9977 133.396C15.1986 133.396 14.5993 132.797 14.5993 131.998Z" fill="black" fill-opacity="0.2"/>
<path d="M14.5993 141.998C14.5993 141.199 15.1986 140.599 15.9977 140.599C16.7968 140.599 17.3961 141.199 17.3961 141.998C17.3961 142.797 16.7968 143.396 15.9977 143.396C15.1986 143.396 14.5993 142.797 14.5993 141.998Z" fill="black" fill-opacity="0.2"/>
<path d="M14.5993 151.998C14.5993 151.199 15.1986 150.599 15.9977 150.599C16.7968 150.599 17.3961 151.199 17.3961 151.998C17.3961 152.797 16.7968 153.396 15.9977 153.396C15.1986 153.396 14.5993 152.797 14.5993 151.998Z" fill="black" fill-opacity="0.2"/>
<path d="M14.5993 161.998C14.5993 161.199 15.1986 160.599 15.9977 160.599C16.7968 160.599 17.3961 161.199 17.3961 161.998C17.3961 162.797 16.7968 163.396 15.9977 163.396C15.1986 163.396 14.5993 162.797 14.5993 161.998Z" fill="black" fill-opacity="0.2"/>
<path d="M14.5993 171.998C14.5993 171.199 15.1986 170.599 15.9977 170.599C16.7968 170.599 17.3961 171.199 17.3961 171.998C17.3961 172.797 16.7968 173.396 15.9977 173.396C15.1986 173.396 14.5993 172.797 14.5993 171.998Z" fill="black" fill-opacity="0.2"/>
<path d="M14.5993 181.998C14.5993 181.199 15.1986 180.599 15.9977 180.599C16.7968 180.599 17.3961 181.199 17.3961 181.998C17.3961 182.797 16.7968 183.396 15.9977 183.396C15.1986 183.396 14.5993 182.797 14.5993 181.998Z" fill="black" fill-opacity="0.2"/>
<path d="M14.5993 191.998C14.5993 191.199 15.1986 190.599 15.9977 190.599C16.7968 190.599 17.3961 191.199 17.3961 191.998C17.3961 192.797 16.7968 193.396 15.9977 193.396C15.1986 193.396 14.5993 192.797 14.5993 191.998Z" fill="black" fill-opacity="0.2"/>
<path d="M14.5993 201.998C14.5993 201.199 15.1986 200.599 15.9977 200.599C16.7968 200.599 17.3961 201.199 17.3961 201.998C17.3961 202.797 16.7968 203.396 15.9977 203.396C15.1986 203.396 14.5993 202.797 14.5993 201.998Z" fill="black" fill-opacity="0.2"/>
<path d="M14.5993 211.998C14.5993 211.199 15.1986 210.599 15.9977 210.599C16.7968 210.599 17.3961 211.199 17.3961 211.998C17.3961 212.797 16.7968 213.396 15.9977 213.396C15.1986 213.396 14.5993 212.797 14.5993 211.998Z" fill="black" fill-opacity="0.2"/>
<path d="M14.5993 221.998C14.5993 221.199 15.1986 220.599 15.9977 220.599C16.7968 220.599 17.3961 221.199 17.3961 221.998C17.3961 222.797 16.7968 223.396 15.9977 223.396C15.1986 223.396 14.5993 222.797 14.5993 221.998Z" fill="black" fill-opacity="0.2"/>
<path d="M28.5993 1.99768C28.5993 1.1986 29.1986 0.599292 29.9977 0.599292C30.7968 0.599293 31.3961 1.19861 31.3961 1.99769C31.3961 2.79677 30.7968 3.39608 29.9977 3.39608C29.1986 3.39608 28.5993 2.79676 28.5993 1.99768Z" fill="black" fill-opacity="0.2"/>
<path d="M28.5993 11.9977C28.5993 11.1986 29.1986 10.5993 29.9977 10.5993C30.7968 10.5993 31.3961 11.1986 31.3961 11.9977C31.3961 12.7968 30.7968 13.3961 29.9977 13.3961C29.1986 13.3961 28.5993 12.7968 28.5993 11.9977Z" fill="black" fill-opacity="0.2"/>
<path d="M28.5993 21.9977C28.5993 21.1986 29.1986 20.5993 29.9977 20.5993C30.7968 20.5993 31.3961 21.1986 31.3961 21.9977C31.3961 22.7968 30.7968 23.3961 29.9977 23.3961C29.1986 23.3961 28.5993 22.7968 28.5993 21.9977Z" fill="black" fill-opacity="0.2"/>
<path d="M28.5993 31.9977C28.5993 31.1986 29.1986 30.5993 29.9977 30.5993C30.7968 30.5993 31.3961 31.1986 31.3961 31.9977C31.3961 32.7968 30.7968 33.3961 29.9977 33.3961C29.1986 33.3961 28.5993 32.7968 28.5993 31.9977Z" fill="black" fill-opacity="0.2"/>
<path d="M28.5993 41.9977C28.5993 41.1986 29.1986 40.5993 29.9977 40.5993C30.7968 40.5993 31.3961 41.1986 31.3961 41.9977C31.3961 42.7968 30.7968 43.3961 29.9977 43.3961C29.1986 43.3961 28.5993 42.7968 28.5993 41.9977Z" fill="black" fill-opacity="0.2"/>
<path d="M28.5993 51.9977C28.5993 51.1986 29.1986 50.5993 29.9977 50.5993C30.7968 50.5993 31.3961 51.1986 31.3961 51.9977C31.3961 52.7968 30.7968 53.3961 29.9977 53.3961C29.1986 53.3961 28.5993 52.7968 28.5993 51.9977Z" fill="black" fill-opacity="0.2"/>
<path d="M28.5993 61.9977C28.5993 61.1986 29.1986 60.5993 29.9977 60.5993C30.7968 60.5993 31.3961 61.1986 31.3961 61.9977C31.3961 62.7968 30.7968 63.3961 29.9977 63.3961C29.1986 63.3961 28.5993 62.7968 28.5993 61.9977Z" fill="black" fill-opacity="0.2"/>
<path d="M28.5993 71.9977C28.5993 71.1986 29.1986 70.5993 29.9977 70.5993C30.7968 70.5993 31.3961 71.1986 31.3961 71.9977C31.3961 72.7968 30.7968 73.3961 29.9977 73.3961C29.1986 73.3961 28.5993 72.7968 28.5993 71.9977Z" fill="black" fill-opacity="0.2"/>
<path d="M28.5993 81.9977C28.5993 81.1986 29.1986 80.5993 29.9977 80.5993C30.7968 80.5993 31.3961 81.1986 31.3961 81.9977C31.3961 82.7968 30.7968 83.3961 29.9977 83.3961C29.1986 83.3961 28.5993 82.7968 28.5993 81.9977Z" fill="black" fill-opacity="0.2"/>
<path d="M28.5993 91.9977C28.5993 91.1986 29.1986 90.5993 29.9977 90.5993C30.7968 90.5993 31.3961 91.1986 31.3961 91.9977C31.3961 92.7968 30.7968 93.3961 29.9977 93.3961C29.1986 93.3961 28.5993 92.7968 28.5993 91.9977Z" fill="black" fill-opacity="0.2"/>
<path d="M28.5993 101.998C28.5993 101.199 29.1986 100.599 29.9977 100.599C30.7968 100.599 31.3961 101.199 31.3961 101.998C31.3961 102.797 30.7968 103.396 29.9977 103.396C29.1986 103.396 28.5993 102.797 28.5993 101.998Z" fill="black" fill-opacity="0.2"/>
<path d="M28.5993 111.998C28.5993 111.199 29.1986 110.599 29.9977 110.599C30.7968 110.599 31.3961 111.199 31.3961 111.998C31.3961 112.797 30.7968 113.396 29.9977 113.396C29.1986 113.396 28.5993 112.797 28.5993 111.998Z" fill="black" fill-opacity="0.2"/>
<path d="M28.5993 121.998C28.5993 121.199 29.1986 120.599 29.9977 120.599C30.7968 120.599 31.3961 121.199 31.3961 121.998C31.3961 122.797 30.7968 123.396 29.9977 123.396C29.1986 123.396 28.5993 122.797 28.5993 121.998Z" fill="black" fill-opacity="0.2"/>
<path d="M28.5993 131.998C28.5993 131.199 29.1986 130.599 29.9977 130.599C30.7968 130.599 31.3961 131.199 31.3961 131.998C31.3961 132.797 30.7968 133.396 29.9977 133.396C29.1986 133.396 28.5993 132.797 28.5993 131.998Z" fill="black" fill-opacity="0.2"/>
<path d="M28.5993 141.998C28.5993 141.199 29.1986 140.599 29.9977 140.599C30.7968 140.599 31.3961 141.199 31.3961 141.998C31.3961 142.797 30.7968 143.396 29.9977 143.396C29.1986 143.396 28.5993 142.797 28.5993 141.998Z" fill="black" fill-opacity="0.2"/>
<path d="M28.5993 151.998C28.5993 151.199 29.1986 150.599 29.9977 150.599C30.7968 150.599 31.3961 151.199 31.3961 151.998C31.3961 152.797 30.7968 153.396 29.9977 153.396C29.1986 153.396 28.5993 152.797 28.5993 151.998Z" fill="black" fill-opacity="0.2"/>
<path d="M28.5993 161.998C28.5993 161.199 29.1986 160.599 29.9977 160.599C30.7968 160.599 31.3961 161.199 31.3961 161.998C31.3961 162.797 30.7968 163.396 29.9977 163.396C29.1986 163.396 28.5993 162.797 28.5993 161.998Z" fill="black" fill-opacity="0.2"/>
<path d="M28.5993 171.998C28.5993 171.199 29.1986 170.599 29.9977 170.599C30.7968 170.599 31.3961 171.199 31.3961 171.998C31.3961 172.797 30.7968 173.396 29.9977 173.396C29.1986 173.396 28.5993 172.797 28.5993 171.998Z" fill="black" fill-opacity="0.2"/>
<path d="M28.5993 181.998C28.5993 181.199 29.1986 180.599 29.9977 180.599C30.7968 180.599 31.3961 181.199 31.3961 181.998C31.3961 182.797 30.7968 183.396 29.9977 183.396C29.1986 183.396 28.5993 182.797 28.5993 181.998Z" fill="black" fill-opacity="0.2"/>
<path d="M28.5993 191.998C28.5993 191.199 29.1986 190.599 29.9977 190.599C30.7968 190.599 31.3961 191.199 31.3961 191.998C31.3961 192.797 30.7968 193.396 29.9977 193.396C29.1986 193.396 28.5993 192.797 28.5993 191.998Z" fill="black" fill-opacity="0.2"/>
<path d="M28.5993 201.998C28.5993 201.199 29.1986 200.599 29.9977 200.599C30.7968 200.599 31.3961 201.199 31.3961 201.998C31.3961 202.797 30.7968 203.396 29.9977 203.396C29.1986 203.396 28.5993 202.797 28.5993 201.998Z" fill="black" fill-opacity="0.2"/>
<path d="M28.5993 211.998C28.5993 211.199 29.1986 210.599 29.9977 210.599C30.7968 210.599 31.3961 211.199 31.3961 211.998C31.3961 212.797 30.7968 213.396 29.9977 213.396C29.1986 213.396 28.5993 212.797 28.5993 211.998Z" fill="black" fill-opacity="0.2"/>
<path d="M28.5993 221.998C28.5993 221.199 29.1986 220.599 29.9977 220.599C30.7968 220.599 31.3961 221.199 31.3961 221.998C31.3961 222.797 30.7968 223.396 29.9977 223.396C29.1986 223.396 28.5993 222.797 28.5993 221.998Z" fill="black" fill-opacity="0.2"/>
<path d="M42.5993 1.99768C42.5993 1.1986 43.1986 0.599292 43.9977 0.599292C44.7968 0.599293 45.3961 1.19861 45.3961 1.99769C45.3961 2.79677 44.7968 3.39608 43.9977 3.39608C43.1986 3.39608 42.5993 2.79676 42.5993 1.99768Z" fill="black" fill-opacity="0.2"/>
<path d="M42.5993 11.9977C42.5993 11.1986 43.1986 10.5993 43.9977 10.5993C44.7968 10.5993 45.3961 11.1986 45.3961 11.9977C45.3961 12.7968 44.7968 13.3961 43.9977 13.3961C43.1986 13.3961 42.5993 12.7968 42.5993 11.9977Z" fill="black" fill-opacity="0.2"/>
<path d="M42.5993 21.9977C42.5993 21.1986 43.1986 20.5993 43.9977 20.5993C44.7968 20.5993 45.3961 21.1986 45.3961 21.9977C45.3961 22.7968 44.7968 23.3961 43.9977 23.3961C43.1986 23.3961 42.5993 22.7968 42.5993 21.9977Z" fill="black" fill-opacity="0.2"/>
<path d="M42.5993 31.9977C42.5993 31.1986 43.1986 30.5993 43.9977 30.5993C44.7968 30.5993 45.3961 31.1986 45.3961 31.9977C45.3961 32.7968 44.7968 33.3961 43.9977 33.3961C43.1986 33.3961 42.5993 32.7968 42.5993 31.9977Z" fill="black" fill-opacity="0.2"/>
<path d="M42.5993 41.9977C42.5993 41.1986 43.1986 40.5993 43.9977 40.5993C44.7968 40.5993 45.3961 41.1986 45.3961 41.9977C45.3961 42.7968 44.7968 43.3961 43.9977 43.3961C43.1986 43.3961 42.5993 42.7968 42.5993 41.9977Z" fill="black" fill-opacity="0.2"/>
<path d="M42.5993 51.9977C42.5993 51.1986 43.1986 50.5993 43.9977 50.5993C44.7968 50.5993 45.3961 51.1986 45.3961 51.9977C45.3961 52.7968 44.7968 53.3961 43.9977 53.3961C43.1986 53.3961 42.5993 52.7968 42.5993 51.9977Z" fill="black" fill-opacity="0.2"/>
<path d="M42.5993 61.9977C42.5993 61.1986 43.1986 60.5993 43.9977 60.5993C44.7968 60.5993 45.3961 61.1986 45.3961 61.9977C45.3961 62.7968 44.7968 63.3961 43.9977 63.3961C43.1986 63.3961 42.5993 62.7968 42.5993 61.9977Z" fill="black" fill-opacity="0.2"/>
<path d="M42.5993 71.9977C42.5993 71.1986 43.1986 70.5993 43.9977 70.5993C44.7968 70.5993 45.3961 71.1986 45.3961 71.9977C45.3961 72.7968 44.7968 73.3961 43.9977 73.3961C43.1986 73.3961 42.5993 72.7968 42.5993 71.9977Z" fill="black" fill-opacity="0.2"/>
<path d="M42.5993 81.9977C42.5993 81.1986 43.1986 80.5993 43.9977 80.5993C44.7968 80.5993 45.3961 81.1986 45.3961 81.9977C45.3961 82.7968 44.7968 83.3961 43.9977 83.3961C43.1986 83.3961 42.5993 82.7968 42.5993 81.9977Z" fill="black" fill-opacity="0.2"/>
<path d="M42.5993 91.9977C42.5993 91.1986 43.1986 90.5993 43.9977 90.5993C44.7968 90.5993 45.3961 91.1986 45.3961 91.9977C45.3961 92.7968 44.7968 93.3961 43.9977 93.3961C43.1986 93.3961 42.5993 92.7968 42.5993 91.9977Z" fill="black" fill-opacity="0.2"/>
<path d="M42.5993 101.998C42.5993 101.199 43.1986 100.599 43.9977 100.599C44.7968 100.599 45.3961 101.199 45.3961 101.998C45.3961 102.797 44.7968 103.396 43.9977 103.396C43.1986 103.396 42.5993 102.797 42.5993 101.998Z" fill="black" fill-opacity="0.2"/>
<path d="M42.5993 111.998C42.5993 111.199 43.1986 110.599 43.9977 110.599C44.7968 110.599 45.3961 111.199 45.3961 111.998C45.3961 112.797 44.7968 113.396 43.9977 113.396C43.1986 113.396 42.5993 112.797 42.5993 111.998Z" fill="black" fill-opacity="0.2"/>
<path d="M42.5993 121.998C42.5993 121.199 43.1986 120.599 43.9977 120.599C44.7968 120.599 45.3961 121.199 45.3961 121.998C45.3961 122.797 44.7968 123.396 43.9977 123.396C43.1986 123.396 42.5993 122.797 42.5993 121.998Z" fill="black" fill-opacity="0.2"/>
<path d="M42.5993 131.998C42.5993 131.199 43.1986 130.599 43.9977 130.599C44.7968 130.599 45.3961 131.199 45.3961 131.998C45.3961 132.797 44.7968 133.396 43.9977 133.396C43.1986 133.396 42.5993 132.797 42.5993 131.998Z" fill="black" fill-opacity="0.2"/>
<path d="M42.5993 141.998C42.5993 141.199 43.1986 140.599 43.9977 140.599C44.7968 140.599 45.3961 141.199 45.3961 141.998C45.3961 142.797 44.7968 143.396 43.9977 143.396C43.1986 143.396 42.5993 142.797 42.5993 141.998Z" fill="black" fill-opacity="0.2"/>
<path d="M42.5993 151.998C42.5993 151.199 43.1986 150.599 43.9977 150.599C44.7968 150.599 45.3961 151.199 45.3961 151.998C45.3961 152.797 44.7968 153.396 43.9977 153.396C43.1986 153.396 42.5993 152.797 42.5993 151.998Z" fill="black" fill-opacity="0.2"/>
<path d="M42.5993 161.998C42.5993 161.199 43.1986 160.599 43.9977 160.599C44.7968 160.599 45.3961 161.199 45.3961 161.998C45.3961 162.797 44.7968 163.396 43.9977 163.396C43.1986 163.396 42.5993 162.797 42.5993 161.998Z" fill="black" fill-opacity="0.2"/>
<path d="M42.5993 171.998C42.5993 171.199 43.1986 170.599 43.9977 170.599C44.7968 170.599 45.3961 171.199 45.3961 171.998C45.3961 172.797 44.7968 173.396 43.9977 173.396C43.1986 173.396 42.5993 172.797 42.5993 171.998Z" fill="black" fill-opacity="0.2"/>
<path d="M42.5993 181.998C42.5993 181.199 43.1986 180.599 43.9977 180.599C44.7968 180.599 45.3961 181.199 45.3961 181.998C45.3961 182.797 44.7968 183.396 43.9977 183.396C43.1986 183.396 42.5993 182.797 42.5993 181.998Z" fill="black" fill-opacity="0.2"/>
<path d="M42.5993 191.998C42.5993 191.199 43.1986 190.599 43.9977 190.599C44.7968 190.599 45.3961 191.199 45.3961 191.998C45.3961 192.797 44.7968 193.396 43.9977 193.396C43.1986 193.396 42.5993 192.797 42.5993 191.998Z" fill="black" fill-opacity="0.2"/>
<path d="M42.5993 201.998C42.5993 201.199 43.1986 200.599 43.9977 200.599C44.7968 200.599 45.3961 201.199 45.3961 201.998C45.3961 202.797 44.7968 203.396 43.9977 203.396C43.1986 203.396 42.5993 202.797 42.5993 201.998Z" fill="black" fill-opacity="0.2"/>
<path d="M42.5993 211.998C42.5993 211.199 43.1986 210.599 43.9977 210.599C44.7968 210.599 45.3961 211.199 45.3961 211.998C45.3961 212.797 44.7968 213.396 43.9977 213.396C43.1986 213.396 42.5993 212.797 42.5993 211.998Z" fill="black" fill-opacity="0.2"/>
<path d="M42.5993 221.998C42.5993 221.199 43.1986 220.599 43.9977 220.599C44.7968 220.599 45.3961 221.199 45.3961 221.998C45.3961 222.797 44.7968 223.396 43.9977 223.396C43.1986 223.396 42.5993 222.797 42.5993 221.998Z" fill="black" fill-opacity="0.2"/>
<path d="M56.5993 1.99768C56.5993 1.1986 57.1986 0.599292 57.9977 0.599292C58.7968 0.599293 59.3961 1.19861 59.3961 1.99769C59.3961 2.79677 58.7968 3.39608 57.9977 3.39608C57.1986 3.39608 56.5993 2.79676 56.5993 1.99768Z" fill="black" fill-opacity="0.2"/>
<path d="M56.5993 11.9977C56.5993 11.1986 57.1986 10.5993 57.9977 10.5993C58.7968 10.5993 59.3961 11.1986 59.3961 11.9977C59.3961 12.7968 58.7968 13.3961 57.9977 13.3961C57.1986 13.3961 56.5993 12.7968 56.5993 11.9977Z" fill="black" fill-opacity="0.2"/>
<path d="M56.5993 21.9977C56.5993 21.1986 57.1986 20.5993 57.9977 20.5993C58.7968 20.5993 59.3961 21.1986 59.3961 21.9977C59.3961 22.7968 58.7968 23.3961 57.9977 23.3961C57.1986 23.3961 56.5993 22.7968 56.5993 21.9977Z" fill="black" fill-opacity="0.2"/>
<path d="M56.5993 31.9977C56.5993 31.1986 57.1986 30.5993 57.9977 30.5993C58.7968 30.5993 59.3961 31.1986 59.3961 31.9977C59.3961 32.7968 58.7968 33.3961 57.9977 33.3961C57.1986 33.3961 56.5993 32.7968 56.5993 31.9977Z" fill="black" fill-opacity="0.2"/>
<path d="M56.5993 41.9977C56.5993 41.1986 57.1986 40.5993 57.9977 40.5993C58.7968 40.5993 59.3961 41.1986 59.3961 41.9977C59.3961 42.7968 58.7968 43.3961 57.9977 43.3961C57.1986 43.3961 56.5993 42.7968 56.5993 41.9977Z" fill="black" fill-opacity="0.2"/>
<path d="M56.5993 51.9977C56.5993 51.1986 57.1986 50.5993 57.9977 50.5993C58.7968 50.5993 59.3961 51.1986 59.3961 51.9977C59.3961 52.7968 58.7968 53.3961 57.9977 53.3961C57.1986 53.3961 56.5993 52.7968 56.5993 51.9977Z" fill="black" fill-opacity="0.2"/>
<path d="M56.5993 61.9977C56.5993 61.1986 57.1986 60.5993 57.9977 60.5993C58.7968 60.5993 59.3961 61.1986 59.3961 61.9977C59.3961 62.7968 58.7968 63.3961 57.9977 63.3961C57.1986 63.3961 56.5993 62.7968 56.5993 61.9977Z" fill="black" fill-opacity="0.2"/>
<path d="M56.5993 71.9977C56.5993 71.1986 57.1986 70.5993 57.9977 70.5993C58.7968 70.5993 59.3961 71.1986 59.3961 71.9977C59.3961 72.7968 58.7968 73.3961 57.9977 73.3961C57.1986 73.3961 56.5993 72.7968 56.5993 71.9977Z" fill="black" fill-opacity="0.2"/>
<path d="M56.5993 81.9977C56.5993 81.1986 57.1986 80.5993 57.9977 80.5993C58.7968 80.5993 59.3961 81.1986 59.3961 81.9977C59.3961 82.7968 58.7968 83.3961 57.9977 83.3961C57.1986 83.3961 56.5993 82.7968 56.5993 81.9977Z" fill="black" fill-opacity="0.2"/>
<path d="M56.5993 91.9977C56.5993 91.1986 57.1986 90.5993 57.9977 90.5993C58.7968 90.5993 59.3961 91.1986 59.3961 91.9977C59.3961 92.7968 58.7968 93.3961 57.9977 93.3961C57.1986 93.3961 56.5993 92.7968 56.5993 91.9977Z" fill="black" fill-opacity="0.2"/>
<path d="M56.5993 101.998C56.5993 101.199 57.1986 100.599 57.9977 100.599C58.7968 100.599 59.3961 101.199 59.3961 101.998C59.3961 102.797 58.7968 103.396 57.9977 103.396C57.1986 103.396 56.5993 102.797 56.5993 101.998Z" fill="black" fill-opacity="0.2"/>
<path d="M56.5993 111.998C56.5993 111.199 57.1986 110.599 57.9977 110.599C58.7968 110.599 59.3961 111.199 59.3961 111.998C59.3961 112.797 58.7968 113.396 57.9977 113.396C57.1986 113.396 56.5993 112.797 56.5993 111.998Z" fill="black" fill-opacity="0.2"/>
<path d="M56.5993 121.998C56.5993 121.199 57.1986 120.599 57.9977 120.599C58.7968 120.599 59.3961 121.199 59.3961 121.998C59.3961 122.797 58.7968 123.396 57.9977 123.396C57.1986 123.396 56.5993 122.797 56.5993 121.998Z" fill="black" fill-opacity="0.2"/>
<path d="M56.5993 131.998C56.5993 131.199 57.1986 130.599 57.9977 130.599C58.7968 130.599 59.3961 131.199 59.3961 131.998C59.3961 132.797 58.7968 133.396 57.9977 133.396C57.1986 133.396 56.5993 132.797 56.5993 131.998Z" fill="black" fill-opacity="0.2"/>
<path d="M56.5993 141.998C56.5993 141.199 57.1986 140.599 57.9977 140.599C58.7968 140.599 59.3961 141.199 59.3961 141.998C59.3961 142.797 58.7968 143.396 57.9977 143.396C57.1986 143.396 56.5993 142.797 56.5993 141.998Z" fill="black" fill-opacity="0.2"/>
<path d="M56.5993 151.998C56.5993 151.199 57.1986 150.599 57.9977 150.599C58.7968 150.599 59.3961 151.199 59.3961 151.998C59.3961 152.797 58.7968 153.396 57.9977 153.396C57.1986 153.396 56.5993 152.797 56.5993 151.998Z" fill="black" fill-opacity="0.2"/>
<path d="M56.5993 161.998C56.5993 161.199 57.1986 160.599 57.9977 160.599C58.7968 160.599 59.3961 161.199 59.3961 161.998C59.3961 162.797 58.7968 163.396 57.9977 163.396C57.1986 163.396 56.5993 162.797 56.5993 161.998Z" fill="black" fill-opacity="0.2"/>
<path d="M56.5993 171.998C56.5993 171.199 57.1986 170.599 57.9977 170.599C58.7968 170.599 59.3961 171.199 59.3961 171.998C59.3961 172.797 58.7968 173.396 57.9977 173.396C57.1986 173.396 56.5993 172.797 56.5993 171.998Z" fill="black" fill-opacity="0.2"/>
<path d="M56.5993 181.998C56.5993 181.199 57.1986 180.599 57.9977 180.599C58.7968 180.599 59.3961 181.199 59.3961 181.998C59.3961 182.797 58.7968 183.396 57.9977 183.396C57.1986 183.396 56.5993 182.797 56.5993 181.998Z" fill="black" fill-opacity="0.2"/>
<path d="M56.5993 191.998C56.5993 191.199 57.1986 190.599 57.9977 190.599C58.7968 190.599 59.3961 191.199 59.3961 191.998C59.3961 192.797 58.7968 193.396 57.9977 193.396C57.1986 193.396 56.5993 192.797 56.5993 191.998Z" fill="black" fill-opacity="0.2"/>
<path d="M56.5993 201.998C56.5993 201.199 57.1986 200.599 57.9977 200.599C58.7968 200.599 59.3961 201.199 59.3961 201.998C59.3961 202.797 58.7968 203.396 57.9977 203.396C57.1986 203.396 56.5993 202.797 56.5993 201.998Z" fill="black" fill-opacity="0.2"/>
<path d="M56.5993 211.998C56.5993 211.199 57.1986 210.599 57.9977 210.599C58.7968 210.599 59.3961 211.199 59.3961 211.998C59.3961 212.797 58.7968 213.396 57.9977 213.396C57.1986 213.396 56.5993 212.797 56.5993 211.998Z" fill="black" fill-opacity="0.2"/>
<path d="M56.5993 221.998C56.5993 221.199 57.1986 220.599 57.9977 220.599C58.7968 220.599 59.3961 221.199 59.3961 221.998C59.3961 222.797 58.7968 223.396 57.9977 223.396C57.1986 223.396 56.5993 222.797 56.5993 221.998Z" fill="black" fill-opacity="0.2"/>
<path d="M70.5993 1.99768C70.5993 1.1986 71.1986 0.599292 71.9977 0.599292C72.7968 0.599293 73.3961 1.19861 73.3961 1.99769C73.3961 2.79677 72.7968 3.39608 71.9977 3.39608C71.1986 3.39608 70.5993 2.79676 70.5993 1.99768Z" fill="black" fill-opacity="0.2"/>
<path d="M70.5993 11.9977C70.5993 11.1986 71.1986 10.5993 71.9977 10.5993C72.7968 10.5993 73.3961 11.1986 73.3961 11.9977C73.3961 12.7968 72.7968 13.3961 71.9977 13.3961C71.1986 13.3961 70.5993 12.7968 70.5993 11.9977Z" fill="black" fill-opacity="0.2"/>
<path d="M70.5993 21.9977C70.5993 21.1986 71.1986 20.5993 71.9977 20.5993C72.7968 20.5993 73.3961 21.1986 73.3961 21.9977C73.3961 22.7968 72.7968 23.3961 71.9977 23.3961C71.1986 23.3961 70.5993 22.7968 70.5993 21.9977Z" fill="black" fill-opacity="0.2"/>
<path d="M70.5993 31.9977C70.5993 31.1986 71.1986 30.5993 71.9977 30.5993C72.7968 30.5993 73.3961 31.1986 73.3961 31.9977C73.3961 32.7968 72.7968 33.3961 71.9977 33.3961C71.1986 33.3961 70.5993 32.7968 70.5993 31.9977Z" fill="black" fill-opacity="0.2"/>
<path d="M70.5993 41.9977C70.5993 41.1986 71.1986 40.5993 71.9977 40.5993C72.7968 40.5993 73.3961 41.1986 73.3961 41.9977C73.3961 42.7968 72.7968 43.3961 71.9977 43.3961C71.1986 43.3961 70.5993 42.7968 70.5993 41.9977Z" fill="black" fill-opacity="0.2"/>
<path d="M70.5993 51.9977C70.5993 51.1986 71.1986 50.5993 71.9977 50.5993C72.7968 50.5993 73.3961 51.1986 73.3961 51.9977C73.3961 52.7968 72.7968 53.3961 71.9977 53.3961C71.1986 53.3961 70.5993 52.7968 70.5993 51.9977Z" fill="black" fill-opacity="0.2"/>
<path d="M70.5993 61.9977C70.5993 61.1986 71.1986 60.5993 71.9977 60.5993C72.7968 60.5993 73.3961 61.1986 73.3961 61.9977C73.3961 62.7968 72.7968 63.3961 71.9977 63.3961C71.1986 63.3961 70.5993 62.7968 70.5993 61.9977Z" fill="black" fill-opacity="0.2"/>
<path d="M70.5993 71.9977C70.5993 71.1986 71.1986 70.5993 71.9977 70.5993C72.7968 70.5993 73.3961 71.1986 73.3961 71.9977C73.3961 72.7968 72.7968 73.3961 71.9977 73.3961C71.1986 73.3961 70.5993 72.7968 70.5993 71.9977Z" fill="black" fill-opacity="0.2"/>
<path d="M70.5993 81.9977C70.5993 81.1986 71.1986 80.5993 71.9977 80.5993C72.7968 80.5993 73.3961 81.1986 73.3961 81.9977C73.3961 82.7968 72.7968 83.3961 71.9977 83.3961C71.1986 83.3961 70.5993 82.7968 70.5993 81.9977Z" fill="black" fill-opacity="0.2"/>
<path d="M70.5993 91.9977C70.5993 91.1986 71.1986 90.5993 71.9977 90.5993C72.7968 90.5993 73.3961 91.1986 73.3961 91.9977C73.3961 92.7968 72.7968 93.3961 71.9977 93.3961C71.1986 93.3961 70.5993 92.7968 70.5993 91.9977Z" fill="black" fill-opacity="0.2"/>
<path d="M70.5993 101.998C70.5993 101.199 71.1986 100.599 71.9977 100.599C72.7968 100.599 73.3961 101.199 73.3961 101.998C73.3961 102.797 72.7968 103.396 71.9977 103.396C71.1986 103.396 70.5993 102.797 70.5993 101.998Z" fill="black" fill-opacity="0.2"/>
<path d="M70.5993 111.998C70.5993 111.199 71.1986 110.599 71.9977 110.599C72.7968 110.599 73.3961 111.199 73.3961 111.998C73.3961 112.797 72.7968 113.396 71.9977 113.396C71.1986 113.396 70.5993 112.797 70.5993 111.998Z" fill="black" fill-opacity="0.2"/>
<path d="M70.5993 121.998C70.5993 121.199 71.1986 120.599 71.9977 120.599C72.7968 120.599 73.3961 121.199 73.3961 121.998C73.3961 122.797 72.7968 123.396 71.9977 123.396C71.1986 123.396 70.5993 122.797 70.5993 121.998Z" fill="black" fill-opacity="0.2"/>
<path d="M70.5993 131.998C70.5993 131.199 71.1986 130.599 71.9977 130.599C72.7968 130.599 73.3961 131.199 73.3961 131.998C73.3961 132.797 72.7968 133.396 71.9977 133.396C71.1986 133.396 70.5993 132.797 70.5993 131.998Z" fill="black" fill-opacity="0.2"/>
<path d="M70.5993 141.998C70.5993 141.199 71.1986 140.599 71.9977 140.599C72.7968 140.599 73.3961 141.199 73.3961 141.998C73.3961 142.797 72.7968 143.396 71.9977 143.396C71.1986 143.396 70.5993 142.797 70.5993 141.998Z" fill="black" fill-opacity="0.2"/>
<path d="M70.5993 151.998C70.5993 151.199 71.1986 150.599 71.9977 150.599C72.7968 150.599 73.3961 151.199 73.3961 151.998C73.3961 152.797 72.7968 153.396 71.9977 153.396C71.1986 153.396 70.5993 152.797 70.5993 151.998Z" fill="black" fill-opacity="0.2"/>
<path d="M70.5993 161.998C70.5993 161.199 71.1986 160.599 71.9977 160.599C72.7968 160.599 73.3961 161.199 73.3961 161.998C73.3961 162.797 72.7968 163.396 71.9977 163.396C71.1986 163.396 70.5993 162.797 70.5993 161.998Z" fill="black" fill-opacity="0.2"/>
<path d="M70.5993 171.998C70.5993 171.199 71.1986 170.599 71.9977 170.599C72.7968 170.599 73.3961 171.199 73.3961 171.998C73.3961 172.797 72.7968 173.396 71.9977 173.396C71.1986 173.396 70.5993 172.797 70.5993 171.998Z" fill="black" fill-opacity="0.2"/>
<path d="M70.5993 181.998C70.5993 181.199 71.1986 180.599 71.9977 180.599C72.7968 180.599 73.3961 181.199 73.3961 181.998C73.3961 182.797 72.7968 183.396 71.9977 183.396C71.1986 183.396 70.5993 182.797 70.5993 181.998Z" fill="black" fill-opacity="0.2"/>
<path d="M70.5993 191.998C70.5993 191.199 71.1986 190.599 71.9977 190.599C72.7968 190.599 73.3961 191.199 73.3961 191.998C73.3961 192.797 72.7968 193.396 71.9977 193.396C71.1986 193.396 70.5993 192.797 70.5993 191.998Z" fill="black" fill-opacity="0.2"/>
<path d="M70.5993 201.998C70.5993 201.199 71.1986 200.599 71.9977 200.599C72.7968 200.599 73.3961 201.199 73.3961 201.998C73.3961 202.797 72.7968 203.396 71.9977 203.396C71.1986 203.396 70.5993 202.797 70.5993 201.998Z" fill="black" fill-opacity="0.2"/>
<path d="M70.5993 211.998C70.5993 211.199 71.1986 210.599 71.9977 210.599C72.7968 210.599 73.3961 211.199 73.3961 211.998C73.3961 212.797 72.7968 213.396 71.9977 213.396C71.1986 213.396 70.5993 212.797 70.5993 211.998Z" fill="black" fill-opacity="0.2"/>
<path d="M70.5993 221.998C70.5993 221.199 71.1986 220.599 71.9977 220.599C72.7968 220.599 73.3961 221.199 73.3961 221.998C73.3961 222.797 72.7968 223.396 71.9977 223.396C71.1986 223.396 70.5993 222.797 70.5993 221.998Z" fill="black" fill-opacity="0.2"/>
<path d="M84.5993 1.99768C84.5993 1.1986 85.1986 0.599292 85.9977 0.599292C86.7968 0.599293 87.3961 1.19861 87.3961 1.99769C87.3961 2.79677 86.7968 3.39608 85.9977 3.39608C85.1986 3.39608 84.5993 2.79676 84.5993 1.99768Z" fill="black" fill-opacity="0.2"/>
<path d="M84.5993 11.9977C84.5993 11.1986 85.1986 10.5993 85.9977 10.5993C86.7968 10.5993 87.3961 11.1986 87.3961 11.9977C87.3961 12.7968 86.7968 13.3961 85.9977 13.3961C85.1986 13.3961 84.5993 12.7968 84.5993 11.9977Z" fill="black" fill-opacity="0.2"/>
<path d="M84.5993 21.9977C84.5993 21.1986 85.1986 20.5993 85.9977 20.5993C86.7968 20.5993 87.3961 21.1986 87.3961 21.9977C87.3961 22.7968 86.7968 23.3961 85.9977 23.3961C85.1986 23.3961 84.5993 22.7968 84.5993 21.9977Z" fill="black" fill-opacity="0.2"/>
<path d="M84.5993 31.9977C84.5993 31.1986 85.1986 30.5993 85.9977 30.5993C86.7968 30.5993 87.3961 31.1986 87.3961 31.9977C87.3961 32.7968 86.7968 33.3961 85.9977 33.3961C85.1986 33.3961 84.5993 32.7968 84.5993 31.9977Z" fill="black" fill-opacity="0.2"/>
<path d="M84.5993 41.9977C84.5993 41.1986 85.1986 40.5993 85.9977 40.5993C86.7968 40.5993 87.3961 41.1986 87.3961 41.9977C87.3961 42.7968 86.7968 43.3961 85.9977 43.3961C85.1986 43.3961 84.5993 42.7968 84.5993 41.9977Z" fill="black" fill-opacity="0.2"/>
<path d="M84.5993 51.9977C84.5993 51.1986 85.1986 50.5993 85.9977 50.5993C86.7968 50.5993 87.3961 51.1986 87.3961 51.9977C87.3961 52.7968 86.7968 53.3961 85.9977 53.3961C85.1986 53.3961 84.5993 52.7968 84.5993 51.9977Z" fill="black" fill-opacity="0.2"/>
<path d="M84.5993 61.9977C84.5993 61.1986 85.1986 60.5993 85.9977 60.5993C86.7968 60.5993 87.3961 61.1986 87.3961 61.9977C87.3961 62.7968 86.7968 63.3961 85.9977 63.3961C85.1986 63.3961 84.5993 62.7968 84.5993 61.9977Z" fill="black" fill-opacity="0.2"/>
<path d="M84.5993 71.9977C84.5993 71.1986 85.1986 70.5993 85.9977 70.5993C86.7968 70.5993 87.3961 71.1986 87.3961 71.9977C87.3961 72.7968 86.7968 73.3961 85.9977 73.3961C85.1986 73.3961 84.5993 72.7968 84.5993 71.9977Z" fill="black" fill-opacity="0.2"/>
<path d="M84.5993 81.9977C84.5993 81.1986 85.1986 80.5993 85.9977 80.5993C86.7968 80.5993 87.3961 81.1986 87.3961 81.9977C87.3961 82.7968 86.7968 83.3961 85.9977 83.3961C85.1986 83.3961 84.5993 82.7968 84.5993 81.9977Z" fill="black" fill-opacity="0.2"/>
<path d="M84.5993 91.9977C84.5993 91.1986 85.1986 90.5993 85.9977 90.5993C86.7968 90.5993 87.3961 91.1986 87.3961 91.9977C87.3961 92.7968 86.7968 93.3961 85.9977 93.3961C85.1986 93.3961 84.5993 92.7968 84.5993 91.9977Z" fill="black" fill-opacity="0.2"/>
<path d="M84.5993 101.998C84.5993 101.199 85.1986 100.599 85.9977 100.599C86.7968 100.599 87.3961 101.199 87.3961 101.998C87.3961 102.797 86.7968 103.396 85.9977 103.396C85.1986 103.396 84.5993 102.797 84.5993 101.998Z" fill="black" fill-opacity="0.2"/>
<path d="M84.5993 111.998C84.5993 111.199 85.1986 110.599 85.9977 110.599C86.7968 110.599 87.3961 111.199 87.3961 111.998C87.3961 112.797 86.7968 113.396 85.9977 113.396C85.1986 113.396 84.5993 112.797 84.5993 111.998Z" fill="black" fill-opacity="0.2"/>
<path d="M84.5993 121.998C84.5993 121.199 85.1986 120.599 85.9977 120.599C86.7968 120.599 87.3961 121.199 87.3961 121.998C87.3961 122.797 86.7968 123.396 85.9977 123.396C85.1986 123.396 84.5993 122.797 84.5993 121.998Z" fill="black" fill-opacity="0.2"/>
<path d="M84.5993 131.998C84.5993 131.199 85.1986 130.599 85.9977 130.599C86.7968 130.599 87.3961 131.199 87.3961 131.998C87.3961 132.797 86.7968 133.396 85.9977 133.396C85.1986 133.396 84.5993 132.797 84.5993 131.998Z" fill="black" fill-opacity="0.2"/>
<path d="M84.5993 141.998C84.5993 141.199 85.1986 140.599 85.9977 140.599C86.7968 140.599 87.3961 141.199 87.3961 141.998C87.3961 142.797 86.7968 143.396 85.9977 143.396C85.1986 143.396 84.5993 142.797 84.5993 141.998Z" fill="black" fill-opacity="0.2"/>
<path d="M84.5993 151.998C84.5993 151.199 85.1986 150.599 85.9977 150.599C86.7968 150.599 87.3961 151.199 87.3961 151.998C87.3961 152.797 86.7968 153.396 85.9977 153.396C85.1986 153.396 84.5993 152.797 84.5993 151.998Z" fill="black" fill-opacity="0.2"/>
<path d="M84.5993 161.998C84.5993 161.199 85.1986 160.599 85.9977 160.599C86.7968 160.599 87.3961 161.199 87.3961 161.998C87.3961 162.797 86.7968 163.396 85.9977 163.396C85.1986 163.396 84.5993 162.797 84.5993 161.998Z" fill="black" fill-opacity="0.2"/>
<path d="M84.5993 171.998C84.5993 171.199 85.1986 170.599 85.9977 170.599C86.7968 170.599 87.3961 171.199 87.3961 171.998C87.3961 172.797 86.7968 173.396 85.9977 173.396C85.1986 173.396 84.5993 172.797 84.5993 171.998Z" fill="black" fill-opacity="0.2"/>
<path d="M84.5993 181.998C84.5993 181.199 85.1986 180.599 85.9977 180.599C86.7968 180.599 87.3961 181.199 87.3961 181.998C87.3961 182.797 86.7968 183.396 85.9977 183.396C85.1986 183.396 84.5993 182.797 84.5993 181.998Z" fill="black" fill-opacity="0.2"/>
<path d="M84.5993 191.998C84.5993 191.199 85.1986 190.599 85.9977 190.599C86.7968 190.599 87.3961 191.199 87.3961 191.998C87.3961 192.797 86.7968 193.396 85.9977 193.396C85.1986 193.396 84.5993 192.797 84.5993 191.998Z" fill="black" fill-opacity="0.2"/>
<path d="M84.5993 201.998C84.5993 201.199 85.1986 200.599 85.9977 200.599C86.7968 200.599 87.3961 201.199 87.3961 201.998C87.3961 202.797 86.7968 203.396 85.9977 203.396C85.1986 203.396 84.5993 202.797 84.5993 201.998Z" fill="black" fill-opacity="0.2"/>
<path d="M84.5993 211.998C84.5993 211.199 85.1986 210.599 85.9977 210.599C86.7968 210.599 87.3961 211.199 87.3961 211.998C87.3961 212.797 86.7968 213.396 85.9977 213.396C85.1986 213.396 84.5993 212.797 84.5993 211.998Z" fill="black" fill-opacity="0.2"/>
<path d="M84.5993 221.998C84.5993 221.199 85.1986 220.599 85.9977 220.599C86.7968 220.599 87.3961 221.199 87.3961 221.998C87.3961 222.797 86.7968 223.396 85.9977 223.396C85.1986 223.396 84.5993 222.797 84.5993 221.998Z" fill="black" fill-opacity="0.2"/>
<path d="M98.5993 1.99768C98.5993 1.1986 99.1986 0.599292 99.9977 0.599292C100.797 0.599293 101.396 1.19861 101.396 1.99769C101.396 2.79677 100.797 3.39608 99.9977 3.39608C99.1986 3.39608 98.5993 2.79676 98.5993 1.99768Z" fill="black" fill-opacity="0.2"/>
<path d="M98.5993 11.9977C98.5993 11.1986 99.1986 10.5993 99.9977 10.5993C100.797 10.5993 101.396 11.1986 101.396 11.9977C101.396 12.7968 100.797 13.3961 99.9977 13.3961C99.1986 13.3961 98.5993 12.7968 98.5993 11.9977Z" fill="black" fill-opacity="0.2"/>
<path d="M98.5993 21.9977C98.5993 21.1986 99.1986 20.5993 99.9977 20.5993C100.797 20.5993 101.396 21.1986 101.396 21.9977C101.396 22.7968 100.797 23.3961 99.9977 23.3961C99.1986 23.3961 98.5993 22.7968 98.5993 21.9977Z" fill="black" fill-opacity="0.2"/>
<path d="M98.5993 31.9977C98.5993 31.1986 99.1986 30.5993 99.9977 30.5993C100.797 30.5993 101.396 31.1986 101.396 31.9977C101.396 32.7968 100.797 33.3961 99.9977 33.3961C99.1986 33.3961 98.5993 32.7968 98.5993 31.9977Z" fill="black" fill-opacity="0.2"/>
<path d="M98.5993 41.9977C98.5993 41.1986 99.1986 40.5993 99.9977 40.5993C100.797 40.5993 101.396 41.1986 101.396 41.9977C101.396 42.7968 100.797 43.3961 99.9977 43.3961C99.1986 43.3961 98.5993 42.7968 98.5993 41.9977Z" fill="black" fill-opacity="0.2"/>
<path d="M98.5993 51.9977C98.5993 51.1986 99.1986 50.5993 99.9977 50.5993C100.797 50.5993 101.396 51.1986 101.396 51.9977C101.396 52.7968 100.797 53.3961 99.9977 53.3961C99.1986 53.3961 98.5993 52.7968 98.5993 51.9977Z" fill="black" fill-opacity="0.2"/>
<path d="M98.5993 61.9977C98.5993 61.1986 99.1986 60.5993 99.9977 60.5993C100.797 60.5993 101.396 61.1986 101.396 61.9977C101.396 62.7968 100.797 63.3961 99.9977 63.3961C99.1986 63.3961 98.5993 62.7968 98.5993 61.9977Z" fill="black" fill-opacity="0.2"/>
<path d="M98.5993 71.9977C98.5993 71.1986 99.1986 70.5993 99.9977 70.5993C100.797 70.5993 101.396 71.1986 101.396 71.9977C101.396 72.7968 100.797 73.3961 99.9977 73.3961C99.1986 73.3961 98.5993 72.7968 98.5993 71.9977Z" fill="black" fill-opacity="0.2"/>
<path d="M98.5993 81.9977C98.5993 81.1986 99.1986 80.5993 99.9977 80.5993C100.797 80.5993 101.396 81.1986 101.396 81.9977C101.396 82.7968 100.797 83.3961 99.9977 83.3961C99.1986 83.3961 98.5993 82.7968 98.5993 81.9977Z" fill="black" fill-opacity="0.2"/>
<path d="M98.5993 91.9977C98.5993 91.1986 99.1986 90.5993 99.9977 90.5993C100.797 90.5993 101.396 91.1986 101.396 91.9977C101.396 92.7968 100.797 93.3961 99.9977 93.3961C99.1986 93.3961 98.5993 92.7968 98.5993 91.9977Z" fill="black" fill-opacity="0.2"/>
<path d="M98.5993 101.998C98.5993 101.199 99.1986 100.599 99.9977 100.599C100.797 100.599 101.396 101.199 101.396 101.998C101.396 102.797 100.797 103.396 99.9977 103.396C99.1986 103.396 98.5993 102.797 98.5993 101.998Z" fill="black" fill-opacity="0.2"/>
<path d="M98.5993 111.998C98.5993 111.199 99.1986 110.599 99.9977 110.599C100.797 110.599 101.396 111.199 101.396 111.998C101.396 112.797 100.797 113.396 99.9977 113.396C99.1986 113.396 98.5993 112.797 98.5993 111.998Z" fill="black" fill-opacity="0.2"/>
<path d="M98.5993 121.998C98.5993 121.199 99.1986 120.599 99.9977 120.599C100.797 120.599 101.396 121.199 101.396 121.998C101.396 122.797 100.797 123.396 99.9977 123.396C99.1986 123.396 98.5993 122.797 98.5993 121.998Z" fill="black" fill-opacity="0.2"/>
<path d="M98.5993 131.998C98.5993 131.199 99.1986 130.599 99.9977 130.599C100.797 130.599 101.396 131.199 101.396 131.998C101.396 132.797 100.797 133.396 99.9977 133.396C99.1986 133.396 98.5993 132.797 98.5993 131.998Z" fill="black" fill-opacity="0.2"/>
<path d="M98.5993 141.998C98.5993 141.199 99.1986 140.599 99.9977 140.599C100.797 140.599 101.396 141.199 101.396 141.998C101.396 142.797 100.797 143.396 99.9977 143.396C99.1986 143.396 98.5993 142.797 98.5993 141.998Z" fill="black" fill-opacity="0.2"/>
<path d="M98.5993 151.998C98.5993 151.199 99.1986 150.599 99.9977 150.599C100.797 150.599 101.396 151.199 101.396 151.998C101.396 152.797 100.797 153.396 99.9977 153.396C99.1986 153.396 98.5993 152.797 98.5993 151.998Z" fill="black" fill-opacity="0.2"/>
<path d="M98.5993 161.998C98.5993 161.199 99.1986 160.599 99.9977 160.599C100.797 160.599 101.396 161.199 101.396 161.998C101.396 162.797 100.797 163.396 99.9977 163.396C99.1986 163.396 98.5993 162.797 98.5993 161.998Z" fill="black" fill-opacity="0.2"/>
<path d="M98.5993 171.998C98.5993 171.199 99.1986 170.599 99.9977 170.599C100.797 170.599 101.396 171.199 101.396 171.998C101.396 172.797 100.797 173.396 99.9977 173.396C99.1986 173.396 98.5993 172.797 98.5993 171.998Z" fill="black" fill-opacity="0.2"/>
<path d="M98.5993 181.998C98.5993 181.199 99.1986 180.599 99.9977 180.599C100.797 180.599 101.396 181.199 101.396 181.998C101.396 182.797 100.797 183.396 99.9977 183.396C99.1986 183.396 98.5993 182.797 98.5993 181.998Z" fill="black" fill-opacity="0.2"/>
<path d="M98.5993 191.998C98.5993 191.199 99.1986 190.599 99.9977 190.599C100.797 190.599 101.396 191.199 101.396 191.998C101.396 192.797 100.797 193.396 99.9977 193.396C99.1986 193.396 98.5993 192.797 98.5993 191.998Z" fill="black" fill-opacity="0.2"/>
<path d="M98.5993 201.998C98.5993 201.199 99.1986 200.599 99.9977 200.599C100.797 200.599 101.396 201.199 101.396 201.998C101.396 202.797 100.797 203.396 99.9977 203.396C99.1986 203.396 98.5993 202.797 98.5993 201.998Z" fill="black" fill-opacity="0.2"/>
<path d="M98.5993 211.998C98.5993 211.199 99.1986 210.599 99.9977 210.599C100.797 210.599 101.396 211.199 101.396 211.998C101.396 212.797 100.797 213.396 99.9977 213.396C99.1986 213.396 98.5993 212.797 98.5993 211.998Z" fill="black" fill-opacity="0.2"/>
<path d="M98.5993 221.998C98.5993 221.199 99.1986 220.599 99.9977 220.599C100.797 220.599 101.396 221.199 101.396 221.998C101.396 222.797 100.797 223.396 99.9977 223.396C99.1986 223.396 98.5993 222.797 98.5993 221.998Z" fill="black" fill-opacity="0.2"/>
<path d="M112.599 1.99768C112.599 1.1986 113.199 0.599292 113.998 0.599292C114.797 0.599293 115.396 1.19861 115.396 1.99769C115.396 2.79677 114.797 3.39608 113.998 3.39608C113.199 3.39608 112.599 2.79676 112.599 1.99768Z" fill="black" fill-opacity="0.2"/>
<path d="M112.599 11.9977C112.599 11.1986 113.199 10.5993 113.998 10.5993C114.797 10.5993 115.396 11.1986 115.396 11.9977C115.396 12.7968 114.797 13.3961 113.998 13.3961C113.199 13.3961 112.599 12.7968 112.599 11.9977Z" fill="black" fill-opacity="0.2"/>
<path d="M112.599 21.9977C112.599 21.1986 113.199 20.5993 113.998 20.5993C114.797 20.5993 115.396 21.1986 115.396 21.9977C115.396 22.7968 114.797 23.3961 113.998 23.3961C113.199 23.3961 112.599 22.7968 112.599 21.9977Z" fill="black" fill-opacity="0.2"/>
<path d="M112.599 31.9977C112.599 31.1986 113.199 30.5993 113.998 30.5993C114.797 30.5993 115.396 31.1986 115.396 31.9977C115.396 32.7968 114.797 33.3961 113.998 33.3961C113.199 33.3961 112.599 32.7968 112.599 31.9977Z" fill="black" fill-opacity="0.2"/>
<path d="M112.599 41.9977C112.599 41.1986 113.199 40.5993 113.998 40.5993C114.797 40.5993 115.396 41.1986 115.396 41.9977C115.396 42.7968 114.797 43.3961 113.998 43.3961C113.199 43.3961 112.599 42.7968 112.599 41.9977Z" fill="black" fill-opacity="0.2"/>
<path d="M112.599 51.9977C112.599 51.1986 113.199 50.5993 113.998 50.5993C114.797 50.5993 115.396 51.1986 115.396 51.9977C115.396 52.7968 114.797 53.3961 113.998 53.3961C113.199 53.3961 112.599 52.7968 112.599 51.9977Z" fill="black" fill-opacity="0.2"/>
<path d="M112.599 61.9977C112.599 61.1986 113.199 60.5993 113.998 60.5993C114.797 60.5993 115.396 61.1986 115.396 61.9977C115.396 62.7968 114.797 63.3961 113.998 63.3961C113.199 63.3961 112.599 62.7968 112.599 61.9977Z" fill="black" fill-opacity="0.2"/>
<path d="M112.599 71.9977C112.599 71.1986 113.199 70.5993 113.998 70.5993C114.797 70.5993 115.396 71.1986 115.396 71.9977C115.396 72.7968 114.797 73.3961 113.998 73.3961C113.199 73.3961 112.599 72.7968 112.599 71.9977Z" fill="black" fill-opacity="0.2"/>
<path d="M112.599 81.9977C112.599 81.1986 113.199 80.5993 113.998 80.5993C114.797 80.5993 115.396 81.1986 115.396 81.9977C115.396 82.7968 114.797 83.3961 113.998 83.3961C113.199 83.3961 112.599 82.7968 112.599 81.9977Z" fill="black" fill-opacity="0.2"/>
<path d="M112.599 91.9977C112.599 91.1986 113.199 90.5993 113.998 90.5993C114.797 90.5993 115.396 91.1986 115.396 91.9977C115.396 92.7968 114.797 93.3961 113.998 93.3961C113.199 93.3961 112.599 92.7968 112.599 91.9977Z" fill="black" fill-opacity="0.2"/>
<path d="M112.599 101.998C112.599 101.199 113.199 100.599 113.998 100.599C114.797 100.599 115.396 101.199 115.396 101.998C115.396 102.797 114.797 103.396 113.998 103.396C113.199 103.396 112.599 102.797 112.599 101.998Z" fill="black" fill-opacity="0.2"/>
<path d="M112.599 111.998C112.599 111.199 113.199 110.599 113.998 110.599C114.797 110.599 115.396 111.199 115.396 111.998C115.396 112.797 114.797 113.396 113.998 113.396C113.199 113.396 112.599 112.797 112.599 111.998Z" fill="black" fill-opacity="0.2"/>
<path d="M112.599 121.998C112.599 121.199 113.199 120.599 113.998 120.599C114.797 120.599 115.396 121.199 115.396 121.998C115.396 122.797 114.797 123.396 113.998 123.396C113.199 123.396 112.599 122.797 112.599 121.998Z" fill="black" fill-opacity="0.2"/>
<path d="M112.599 131.998C112.599 131.199 113.199 130.599 113.998 130.599C114.797 130.599 115.396 131.199 115.396 131.998C115.396 132.797 114.797 133.396 113.998 133.396C113.199 133.396 112.599 132.797 112.599 131.998Z" fill="black" fill-opacity="0.2"/>
<path d="M112.599 141.998C112.599 141.199 113.199 140.599 113.998 140.599C114.797 140.599 115.396 141.199 115.396 141.998C115.396 142.797 114.797 143.396 113.998 143.396C113.199 143.396 112.599 142.797 112.599 141.998Z" fill="black" fill-opacity="0.2"/>
<path d="M112.599 151.998C112.599 151.199 113.199 150.599 113.998 150.599C114.797 150.599 115.396 151.199 115.396 151.998C115.396 152.797 114.797 153.396 113.998 153.396C113.199 153.396 112.599 152.797 112.599 151.998Z" fill="black" fill-opacity="0.2"/>
<path d="M112.599 161.998C112.599 161.199 113.199 160.599 113.998 160.599C114.797 160.599 115.396 161.199 115.396 161.998C115.396 162.797 114.797 163.396 113.998 163.396C113.199 163.396 112.599 162.797 112.599 161.998Z" fill="black" fill-opacity="0.2"/>
<path d="M112.599 171.998C112.599 171.199 113.199 170.599 113.998 170.599C114.797 170.599 115.396 171.199 115.396 171.998C115.396 172.797 114.797 173.396 113.998 173.396C113.199 173.396 112.599 172.797 112.599 171.998Z" fill="black" fill-opacity="0.2"/>
<path d="M112.599 181.998C112.599 181.199 113.199 180.599 113.998 180.599C114.797 180.599 115.396 181.199 115.396 181.998C115.396 182.797 114.797 183.396 113.998 183.396C113.199 183.396 112.599 182.797 112.599 181.998Z" fill="black" fill-opacity="0.2"/>
<path d="M112.599 191.998C112.599 191.199 113.199 190.599 113.998 190.599C114.797 190.599 115.396 191.199 115.396 191.998C115.396 192.797 114.797 193.396 113.998 193.396C113.199 193.396 112.599 192.797 112.599 191.998Z" fill="black" fill-opacity="0.2"/>
<path d="M112.599 201.998C112.599 201.199 113.199 200.599 113.998 200.599C114.797 200.599 115.396 201.199 115.396 201.998C115.396 202.797 114.797 203.396 113.998 203.396C113.199 203.396 112.599 202.797 112.599 201.998Z" fill="black" fill-opacity="0.2"/>
<path d="M112.599 211.998C112.599 211.199 113.199 210.599 113.998 210.599C114.797 210.599 115.396 211.199 115.396 211.998C115.396 212.797 114.797 213.396 113.998 213.396C113.199 213.396 112.599 212.797 112.599 211.998Z" fill="black" fill-opacity="0.2"/>
<path d="M112.599 221.998C112.599 221.199 113.199 220.599 113.998 220.599C114.797 220.599 115.396 221.199 115.396 221.998C115.396 222.797 114.797 223.396 113.998 223.396C113.199 223.396 112.599 222.797 112.599 221.998Z" fill="black" fill-opacity="0.2"/>
<path d="M126.599 1.99768C126.599 1.1986 127.199 0.599292 127.998 0.599292C128.797 0.599293 129.396 1.19861 129.396 1.99769C129.396 2.79677 128.797 3.39608 127.998 3.39608C127.199 3.39608 126.599 2.79676 126.599 1.99768Z" fill="black" fill-opacity="0.2"/>
<path d="M126.599 11.9977C126.599 11.1986 127.199 10.5993 127.998 10.5993C128.797 10.5993 129.396 11.1986 129.396 11.9977C129.396 12.7968 128.797 13.3961 127.998 13.3961C127.199 13.3961 126.599 12.7968 126.599 11.9977Z" fill="black" fill-opacity="0.2"/>
<path d="M126.599 21.9977C126.599 21.1986 127.199 20.5993 127.998 20.5993C128.797 20.5993 129.396 21.1986 129.396 21.9977C129.396 22.7968 128.797 23.3961 127.998 23.3961C127.199 23.3961 126.599 22.7968 126.599 21.9977Z" fill="black" fill-opacity="0.2"/>
<path d="M126.599 31.9977C126.599 31.1986 127.199 30.5993 127.998 30.5993C128.797 30.5993 129.396 31.1986 129.396 31.9977C129.396 32.7968 128.797 33.3961 127.998 33.3961C127.199 33.3961 126.599 32.7968 126.599 31.9977Z" fill="black" fill-opacity="0.2"/>
<path d="M126.599 41.9977C126.599 41.1986 127.199 40.5993 127.998 40.5993C128.797 40.5993 129.396 41.1986 129.396 41.9977C129.396 42.7968 128.797 43.3961 127.998 43.3961C127.199 43.3961 126.599 42.7968 126.599 41.9977Z" fill="black" fill-opacity="0.2"/>
<path d="M126.599 51.9977C126.599 51.1986 127.199 50.5993 127.998 50.5993C128.797 50.5993 129.396 51.1986 129.396 51.9977C129.396 52.7968 128.797 53.3961 127.998 53.3961C127.199 53.3961 126.599 52.7968 126.599 51.9977Z" fill="black" fill-opacity="0.2"/>
<path d="M126.599 61.9977C126.599 61.1986 127.199 60.5993 127.998 60.5993C128.797 60.5993 129.396 61.1986 129.396 61.9977C129.396 62.7968 128.797 63.3961 127.998 63.3961C127.199 63.3961 126.599 62.7968 126.599 61.9977Z" fill="black" fill-opacity="0.2"/>
<path d="M126.599 71.9977C126.599 71.1986 127.199 70.5993 127.998 70.5993C128.797 70.5993 129.396 71.1986 129.396 71.9977C129.396 72.7968 128.797 73.3961 127.998 73.3961C127.199 73.3961 126.599 72.7968 126.599 71.9977Z" fill="black" fill-opacity="0.2"/>
<path d="M126.599 81.9977C126.599 81.1986 127.199 80.5993 127.998 80.5993C128.797 80.5993 129.396 81.1986 129.396 81.9977C129.396 82.7968 128.797 83.3961 127.998 83.3961C127.199 83.3961 126.599 82.7968 126.599 81.9977Z" fill="black" fill-opacity="0.2"/>
<path d="M126.599 91.9977C126.599 91.1986 127.199 90.5993 127.998 90.5993C128.797 90.5993 129.396 91.1986 129.396 91.9977C129.396 92.7968 128.797 93.3961 127.998 93.3961C127.199 93.3961 126.599 92.7968 126.599 91.9977Z" fill="black" fill-opacity="0.2"/>
<path d="M126.599 101.998C126.599 101.199 127.199 100.599 127.998 100.599C128.797 100.599 129.396 101.199 129.396 101.998C129.396 102.797 128.797 103.396 127.998 103.396C127.199 103.396 126.599 102.797 126.599 101.998Z" fill="black" fill-opacity="0.2"/>
<path d="M126.599 111.998C126.599 111.199 127.199 110.599 127.998 110.599C128.797 110.599 129.396 111.199 129.396 111.998C129.396 112.797 128.797 113.396 127.998 113.396C127.199 113.396 126.599 112.797 126.599 111.998Z" fill="black" fill-opacity="0.2"/>
<path d="M126.599 121.998C126.599 121.199 127.199 120.599 127.998 120.599C128.797 120.599 129.396 121.199 129.396 121.998C129.396 122.797 128.797 123.396 127.998 123.396C127.199 123.396 126.599 122.797 126.599 121.998Z" fill="black" fill-opacity="0.2"/>
<path d="M126.599 131.998C126.599 131.199 127.199 130.599 127.998 130.599C128.797 130.599 129.396 131.199 129.396 131.998C129.396 132.797 128.797 133.396 127.998 133.396C127.199 133.396 126.599 132.797 126.599 131.998Z" fill="black" fill-opacity="0.2"/>
<path d="M126.599 141.998C126.599 141.199 127.199 140.599 127.998 140.599C128.797 140.599 129.396 141.199 129.396 141.998C129.396 142.797 128.797 143.396 127.998 143.396C127.199 143.396 126.599 142.797 126.599 141.998Z" fill="black" fill-opacity="0.2"/>
<path d="M126.599 151.998C126.599 151.199 127.199 150.599 127.998 150.599C128.797 150.599 129.396 151.199 129.396 151.998C129.396 152.797 128.797 153.396 127.998 153.396C127.199 153.396 126.599 152.797 126.599 151.998Z" fill="black" fill-opacity="0.2"/>
<path d="M126.599 161.998C126.599 161.199 127.199 160.599 127.998 160.599C128.797 160.599 129.396 161.199 129.396 161.998C129.396 162.797 128.797 163.396 127.998 163.396C127.199 163.396 126.599 162.797 126.599 161.998Z" fill="black" fill-opacity="0.2"/>
<path d="M126.599 171.998C126.599 171.199 127.199 170.599 127.998 170.599C128.797 170.599 129.396 171.199 129.396 171.998C129.396 172.797 128.797 173.396 127.998 173.396C127.199 173.396 126.599 172.797 126.599 171.998Z" fill="black" fill-opacity="0.2"/>
<path d="M126.599 181.998C126.599 181.199 127.199 180.599 127.998 180.599C128.797 180.599 129.396 181.199 129.396 181.998C129.396 182.797 128.797 183.396 127.998 183.396C127.199 183.396 126.599 182.797 126.599 181.998Z" fill="black" fill-opacity="0.2"/>
<path d="M126.599 191.998C126.599 191.199 127.199 190.599 127.998 190.599C128.797 190.599 129.396 191.199 129.396 191.998C129.396 192.797 128.797 193.396 127.998 193.396C127.199 193.396 126.599 192.797 126.599 191.998Z" fill="black" fill-opacity="0.2"/>
<path d="M126.599 201.998C126.599 201.199 127.199 200.599 127.998 200.599C128.797 200.599 129.396 201.199 129.396 201.998C129.396 202.797 128.797 203.396 127.998 203.396C127.199 203.396 126.599 202.797 126.599 201.998Z" fill="black" fill-opacity="0.2"/>
<path d="M126.599 211.998C126.599 211.199 127.199 210.599 127.998 210.599C128.797 210.599 129.396 211.199 129.396 211.998C129.396 212.797 128.797 213.396 127.998 213.396C127.199 213.396 126.599 212.797 126.599 211.998Z" fill="black" fill-opacity="0.2"/>
<path d="M126.599 221.998C126.599 221.199 127.199 220.599 127.998 220.599C128.797 220.599 129.396 221.199 129.396 221.998C129.396 222.797 128.797 223.396 127.998 223.396C127.199 223.396 126.599 222.797 126.599 221.998Z" fill="black" fill-opacity="0.2"/>
<path d="M140.599 1.99768C140.599 1.1986 141.199 0.599292 141.998 0.599292C142.797 0.599293 143.396 1.19861 143.396 1.99769C143.396 2.79677 142.797 3.39608 141.998 3.39608C141.199 3.39608 140.599 2.79676 140.599 1.99768Z" fill="black" fill-opacity="0.2"/>
<path d="M140.599 11.9977C140.599 11.1986 141.199 10.5993 141.998 10.5993C142.797 10.5993 143.396 11.1986 143.396 11.9977C143.396 12.7968 142.797 13.3961 141.998 13.3961C141.199 13.3961 140.599 12.7968 140.599 11.9977Z" fill="black" fill-opacity="0.2"/>
<path d="M140.599 21.9977C140.599 21.1986 141.199 20.5993 141.998 20.5993C142.797 20.5993 143.396 21.1986 143.396 21.9977C143.396 22.7968 142.797 23.3961 141.998 23.3961C141.199 23.3961 140.599 22.7968 140.599 21.9977Z" fill="black" fill-opacity="0.2"/>
<path d="M140.599 31.9977C140.599 31.1986 141.199 30.5993 141.998 30.5993C142.797 30.5993 143.396 31.1986 143.396 31.9977C143.396 32.7968 142.797 33.3961 141.998 33.3961C141.199 33.3961 140.599 32.7968 140.599 31.9977Z" fill="black" fill-opacity="0.2"/>
<path d="M140.599 41.9977C140.599 41.1986 141.199 40.5993 141.998 40.5993C142.797 40.5993 143.396 41.1986 143.396 41.9977C143.396 42.7968 142.797 43.3961 141.998 43.3961C141.199 43.3961 140.599 42.7968 140.599 41.9977Z" fill="black" fill-opacity="0.2"/>
<path d="M140.599 51.9977C140.599 51.1986 141.199 50.5993 141.998 50.5993C142.797 50.5993 143.396 51.1986 143.396 51.9977C143.396 52.7968 142.797 53.3961 141.998 53.3961C141.199 53.3961 140.599 52.7968 140.599 51.9977Z" fill="black" fill-opacity="0.2"/>
<path d="M140.599 61.9977C140.599 61.1986 141.199 60.5993 141.998 60.5993C142.797 60.5993 143.396 61.1986 143.396 61.9977C143.396 62.7968 142.797 63.3961 141.998 63.3961C141.199 63.3961 140.599 62.7968 140.599 61.9977Z" fill="black" fill-opacity="0.2"/>
<path d="M140.599 71.9977C140.599 71.1986 141.199 70.5993 141.998 70.5993C142.797 70.5993 143.396 71.1986 143.396 71.9977C143.396 72.7968 142.797 73.3961 141.998 73.3961C141.199 73.3961 140.599 72.7968 140.599 71.9977Z" fill="black" fill-opacity="0.2"/>
<path d="M140.599 81.9977C140.599 81.1986 141.199 80.5993 141.998 80.5993C142.797 80.5993 143.396 81.1986 143.396 81.9977C143.396 82.7968 142.797 83.3961 141.998 83.3961C141.199 83.3961 140.599 82.7968 140.599 81.9977Z" fill="black" fill-opacity="0.2"/>
<path d="M140.599 91.9977C140.599 91.1986 141.199 90.5993 141.998 90.5993C142.797 90.5993 143.396 91.1986 143.396 91.9977C143.396 92.7968 142.797 93.3961 141.998 93.3961C141.199 93.3961 140.599 92.7968 140.599 91.9977Z" fill="black" fill-opacity="0.2"/>
<path d="M140.599 101.998C140.599 101.199 141.199 100.599 141.998 100.599C142.797 100.599 143.396 101.199 143.396 101.998C143.396 102.797 142.797 103.396 141.998 103.396C141.199 103.396 140.599 102.797 140.599 101.998Z" fill="black" fill-opacity="0.2"/>
<path d="M140.599 111.998C140.599 111.199 141.199 110.599 141.998 110.599C142.797 110.599 143.396 111.199 143.396 111.998C143.396 112.797 142.797 113.396 141.998 113.396C141.199 113.396 140.599 112.797 140.599 111.998Z" fill="black" fill-opacity="0.2"/>
<path d="M140.599 121.998C140.599 121.199 141.199 120.599 141.998 120.599C142.797 120.599 143.396 121.199 143.396 121.998C143.396 122.797 142.797 123.396 141.998 123.396C141.199 123.396 140.599 122.797 140.599 121.998Z" fill="black" fill-opacity="0.2"/>
<path d="M140.599 131.998C140.599 131.199 141.199 130.599 141.998 130.599C142.797 130.599 143.396 131.199 143.396 131.998C143.396 132.797 142.797 133.396 141.998 133.396C141.199 133.396 140.599 132.797 140.599 131.998Z" fill="black" fill-opacity="0.2"/>
<path d="M140.599 141.998C140.599 141.199 141.199 140.599 141.998 140.599C142.797 140.599 143.396 141.199 143.396 141.998C143.396 142.797 142.797 143.396 141.998 143.396C141.199 143.396 140.599 142.797 140.599 141.998Z" fill="black" fill-opacity="0.2"/>
<path d="M140.599 151.998C140.599 151.199 141.199 150.599 141.998 150.599C142.797 150.599 143.396 151.199 143.396 151.998C143.396 152.797 142.797 153.396 141.998 153.396C141.199 153.396 140.599 152.797 140.599 151.998Z" fill="black" fill-opacity="0.2"/>
<path d="M140.599 161.998C140.599 161.199 141.199 160.599 141.998 160.599C142.797 160.599 143.396 161.199 143.396 161.998C143.396 162.797 142.797 163.396 141.998 163.396C141.199 163.396 140.599 162.797 140.599 161.998Z" fill="black" fill-opacity="0.2"/>
<path d="M140.599 171.998C140.599 171.199 141.199 170.599 141.998 170.599C142.797 170.599 143.396 171.199 143.396 171.998C143.396 172.797 142.797 173.396 141.998 173.396C141.199 173.396 140.599 172.797 140.599 171.998Z" fill="black" fill-opacity="0.2"/>
<path d="M140.599 181.998C140.599 181.199 141.199 180.599 141.998 180.599C142.797 180.599 143.396 181.199 143.396 181.998C143.396 182.797 142.797 183.396 141.998 183.396C141.199 183.396 140.599 182.797 140.599 181.998Z" fill="black" fill-opacity="0.2"/>
<path d="M140.599 191.998C140.599 191.199 141.199 190.599 141.998 190.599C142.797 190.599 143.396 191.199 143.396 191.998C143.396 192.797 142.797 193.396 141.998 193.396C141.199 193.396 140.599 192.797 140.599 191.998Z" fill="black" fill-opacity="0.2"/>
<path d="M140.599 201.998C140.599 201.199 141.199 200.599 141.998 200.599C142.797 200.599 143.396 201.199 143.396 201.998C143.396 202.797 142.797 203.396 141.998 203.396C141.199 203.396 140.599 202.797 140.599 201.998Z" fill="black" fill-opacity="0.2"/>
<path d="M140.599 211.998C140.599 211.199 141.199 210.599 141.998 210.599C142.797 210.599 143.396 211.199 143.396 211.998C143.396 212.797 142.797 213.396 141.998 213.396C141.199 213.396 140.599 212.797 140.599 211.998Z" fill="black" fill-opacity="0.2"/>
<path d="M140.599 221.998C140.599 221.199 141.199 220.599 141.998 220.599C142.797 220.599 143.396 221.199 143.396 221.998C143.396 222.797 142.797 223.396 141.998 223.396C141.199 223.396 140.599 222.797 140.599 221.998Z" fill="black" fill-opacity="0.2"/>
<path d="M154.599 1.99768C154.599 1.1986 155.199 0.599292 155.998 0.599292C156.797 0.599293 157.396 1.19861 157.396 1.99769C157.396 2.79677 156.797 3.39608 155.998 3.39608C155.199 3.39608 154.599 2.79676 154.599 1.99768Z" fill="black" fill-opacity="0.2"/>
<path d="M154.599 11.9977C154.599 11.1986 155.199 10.5993 155.998 10.5993C156.797 10.5993 157.396 11.1986 157.396 11.9977C157.396 12.7968 156.797 13.3961 155.998 13.3961C155.199 13.3961 154.599 12.7968 154.599 11.9977Z" fill="black" fill-opacity="0.2"/>
<path d="M154.599 21.9977C154.599 21.1986 155.199 20.5993 155.998 20.5993C156.797 20.5993 157.396 21.1986 157.396 21.9977C157.396 22.7968 156.797 23.3961 155.998 23.3961C155.199 23.3961 154.599 22.7968 154.599 21.9977Z" fill="black" fill-opacity="0.2"/>
<path d="M154.599 31.9977C154.599 31.1986 155.199 30.5993 155.998 30.5993C156.797 30.5993 157.396 31.1986 157.396 31.9977C157.396 32.7968 156.797 33.3961 155.998 33.3961C155.199 33.3961 154.599 32.7968 154.599 31.9977Z" fill="black" fill-opacity="0.2"/>
<path d="M154.599 41.9977C154.599 41.1986 155.199 40.5993 155.998 40.5993C156.797 40.5993 157.396 41.1986 157.396 41.9977C157.396 42.7968 156.797 43.3961 155.998 43.3961C155.199 43.3961 154.599 42.7968 154.599 41.9977Z" fill="black" fill-opacity="0.2"/>
<path d="M154.599 51.9977C154.599 51.1986 155.199 50.5993 155.998 50.5993C156.797 50.5993 157.396 51.1986 157.396 51.9977C157.396 52.7968 156.797 53.3961 155.998 53.3961C155.199 53.3961 154.599 52.7968 154.599 51.9977Z" fill="black" fill-opacity="0.2"/>
<path d="M154.599 61.9977C154.599 61.1986 155.199 60.5993 155.998 60.5993C156.797 60.5993 157.396 61.1986 157.396 61.9977C157.396 62.7968 156.797 63.3961 155.998 63.3961C155.199 63.3961 154.599 62.7968 154.599 61.9977Z" fill="black" fill-opacity="0.2"/>
<path d="M154.599 71.9977C154.599 71.1986 155.199 70.5993 155.998 70.5993C156.797 70.5993 157.396 71.1986 157.396 71.9977C157.396 72.7968 156.797 73.3961 155.998 73.3961C155.199 73.3961 154.599 72.7968 154.599 71.9977Z" fill="black" fill-opacity="0.2"/>
<path d="M154.599 81.9977C154.599 81.1986 155.199 80.5993 155.998 80.5993C156.797 80.5993 157.396 81.1986 157.396 81.9977C157.396 82.7968 156.797 83.3961 155.998 83.3961C155.199 83.3961 154.599 82.7968 154.599 81.9977Z" fill="black" fill-opacity="0.2"/>
<path d="M154.599 91.9977C154.599 91.1986 155.199 90.5993 155.998 90.5993C156.797 90.5993 157.396 91.1986 157.396 91.9977C157.396 92.7968 156.797 93.3961 155.998 93.3961C155.199 93.3961 154.599 92.7968 154.599 91.9977Z" fill="black" fill-opacity="0.2"/>
<path d="M154.599 101.998C154.599 101.199 155.199 100.599 155.998 100.599C156.797 100.599 157.396 101.199 157.396 101.998C157.396 102.797 156.797 103.396 155.998 103.396C155.199 103.396 154.599 102.797 154.599 101.998Z" fill="black" fill-opacity="0.2"/>
<path d="M154.599 111.998C154.599 111.199 155.199 110.599 155.998 110.599C156.797 110.599 157.396 111.199 157.396 111.998C157.396 112.797 156.797 113.396 155.998 113.396C155.199 113.396 154.599 112.797 154.599 111.998Z" fill="black" fill-opacity="0.2"/>
<path d="M154.599 121.998C154.599 121.199 155.199 120.599 155.998 120.599C156.797 120.599 157.396 121.199 157.396 121.998C157.396 122.797 156.797 123.396 155.998 123.396C155.199 123.396 154.599 122.797 154.599 121.998Z" fill="black" fill-opacity="0.2"/>
<path d="M154.599 131.998C154.599 131.199 155.199 130.599 155.998 130.599C156.797 130.599 157.396 131.199 157.396 131.998C157.396 132.797 156.797 133.396 155.998 133.396C155.199 133.396 154.599 132.797 154.599 131.998Z" fill="black" fill-opacity="0.2"/>
<path d="M154.599 141.998C154.599 141.199 155.199 140.599 155.998 140.599C156.797 140.599 157.396 141.199 157.396 141.998C157.396 142.797 156.797 143.396 155.998 143.396C155.199 143.396 154.599 142.797 154.599 141.998Z" fill="black" fill-opacity="0.2"/>
<path d="M154.599 151.998C154.599 151.199 155.199 150.599 155.998 150.599C156.797 150.599 157.396 151.199 157.396 151.998C157.396 152.797 156.797 153.396 155.998 153.396C155.199 153.396 154.599 152.797 154.599 151.998Z" fill="black" fill-opacity="0.2"/>
<path d="M154.599 161.998C154.599 161.199 155.199 160.599 155.998 160.599C156.797 160.599 157.396 161.199 157.396 161.998C157.396 162.797 156.797 163.396 155.998 163.396C155.199 163.396 154.599 162.797 154.599 161.998Z" fill="black" fill-opacity="0.2"/>
<path d="M154.599 171.998C154.599 171.199 155.199 170.599 155.998 170.599C156.797 170.599 157.396 171.199 157.396 171.998C157.396 172.797 156.797 173.396 155.998 173.396C155.199 173.396 154.599 172.797 154.599 171.998Z" fill="black" fill-opacity="0.2"/>
<path d="M154.599 181.998C154.599 181.199 155.199 180.599 155.998 180.599C156.797 180.599 157.396 181.199 157.396 181.998C157.396 182.797 156.797 183.396 155.998 183.396C155.199 183.396 154.599 182.797 154.599 181.998Z" fill="black" fill-opacity="0.2"/>
<path d="M154.599 191.998C154.599 191.199 155.199 190.599 155.998 190.599C156.797 190.599 157.396 191.199 157.396 191.998C157.396 192.797 156.797 193.396 155.998 193.396C155.199 193.396 154.599 192.797 154.599 191.998Z" fill="black" fill-opacity="0.2"/>
<path d="M154.599 201.998C154.599 201.199 155.199 200.599 155.998 200.599C156.797 200.599 157.396 201.199 157.396 201.998C157.396 202.797 156.797 203.396 155.998 203.396C155.199 203.396 154.599 202.797 154.599 201.998Z" fill="black" fill-opacity="0.2"/>
<path d="M154.599 211.998C154.599 211.199 155.199 210.599 155.998 210.599C156.797 210.599 157.396 211.199 157.396 211.998C157.396 212.797 156.797 213.396 155.998 213.396C155.199 213.396 154.599 212.797 154.599 211.998Z" fill="black" fill-opacity="0.2"/>
<path d="M154.599 221.998C154.599 221.199 155.199 220.599 155.998 220.599C156.797 220.599 157.396 221.199 157.396 221.998C157.396 222.797 156.797 223.396 155.998 223.396C155.199 223.396 154.599 222.797 154.599 221.998Z" fill="black" fill-opacity="0.2"/>
<path d="M168.599 1.99768C168.599 1.1986 169.199 0.599292 169.998 0.599292C170.797 0.599293 171.396 1.19861 171.396 1.99769C171.396 2.79677 170.797 3.39608 169.998 3.39608C169.199 3.39608 168.599 2.79676 168.599 1.99768Z" fill="black" fill-opacity="0.2"/>
<path d="M168.599 11.9977C168.599 11.1986 169.199 10.5993 169.998 10.5993C170.797 10.5993 171.396 11.1986 171.396 11.9977C171.396 12.7968 170.797 13.3961 169.998 13.3961C169.199 13.3961 168.599 12.7968 168.599 11.9977Z" fill="black" fill-opacity="0.2"/>
<path d="M168.599 21.9977C168.599 21.1986 169.199 20.5993 169.998 20.5993C170.797 20.5993 171.396 21.1986 171.396 21.9977C171.396 22.7968 170.797 23.3961 169.998 23.3961C169.199 23.3961 168.599 22.7968 168.599 21.9977Z" fill="black" fill-opacity="0.2"/>
<path d="M168.599 31.9977C168.599 31.1986 169.199 30.5993 169.998 30.5993C170.797 30.5993 171.396 31.1986 171.396 31.9977C171.396 32.7968 170.797 33.3961 169.998 33.3961C169.199 33.3961 168.599 32.7968 168.599 31.9977Z" fill="black" fill-opacity="0.2"/>
<path d="M168.599 41.9977C168.599 41.1986 169.199 40.5993 169.998 40.5993C170.797 40.5993 171.396 41.1986 171.396 41.9977C171.396 42.7968 170.797 43.3961 169.998 43.3961C169.199 43.3961 168.599 42.7968 168.599 41.9977Z" fill="black" fill-opacity="0.2"/>
<path d="M168.599 51.9977C168.599 51.1986 169.199 50.5993 169.998 50.5993C170.797 50.5993 171.396 51.1986 171.396 51.9977C171.396 52.7968 170.797 53.3961 169.998 53.3961C169.199 53.3961 168.599 52.7968 168.599 51.9977Z" fill="black" fill-opacity="0.2"/>
<path d="M168.599 61.9977C168.599 61.1986 169.199 60.5993 169.998 60.5993C170.797 60.5993 171.396 61.1986 171.396 61.9977C171.396 62.7968 170.797 63.3961 169.998 63.3961C169.199 63.3961 168.599 62.7968 168.599 61.9977Z" fill="black" fill-opacity="0.2"/>
<path d="M168.599 71.9977C168.599 71.1986 169.199 70.5993 169.998 70.5993C170.797 70.5993 171.396 71.1986 171.396 71.9977C171.396 72.7968 170.797 73.3961 169.998 73.3961C169.199 73.3961 168.599 72.7968 168.599 71.9977Z" fill="black" fill-opacity="0.2"/>
<path d="M168.599 81.9977C168.599 81.1986 169.199 80.5993 169.998 80.5993C170.797 80.5993 171.396 81.1986 171.396 81.9977C171.396 82.7968 170.797 83.3961 169.998 83.3961C169.199 83.3961 168.599 82.7968 168.599 81.9977Z" fill="black" fill-opacity="0.2"/>
<path d="M168.599 91.9977C168.599 91.1986 169.199 90.5993 169.998 90.5993C170.797 90.5993 171.396 91.1986 171.396 91.9977C171.396 92.7968 170.797 93.3961 169.998 93.3961C169.199 93.3961 168.599 92.7968 168.599 91.9977Z" fill="black" fill-opacity="0.2"/>
<path d="M168.599 101.998C168.599 101.199 169.199 100.599 169.998 100.599C170.797 100.599 171.396 101.199 171.396 101.998C171.396 102.797 170.797 103.396 169.998 103.396C169.199 103.396 168.599 102.797 168.599 101.998Z" fill="black" fill-opacity="0.2"/>
<path d="M168.599 111.998C168.599 111.199 169.199 110.599 169.998 110.599C170.797 110.599 171.396 111.199 171.396 111.998C171.396 112.797 170.797 113.396 169.998 113.396C169.199 113.396 168.599 112.797 168.599 111.998Z" fill="black" fill-opacity="0.2"/>
<path d="M168.599 121.998C168.599 121.199 169.199 120.599 169.998 120.599C170.797 120.599 171.396 121.199 171.396 121.998C171.396 122.797 170.797 123.396 169.998 123.396C169.199 123.396 168.599 122.797 168.599 121.998Z" fill="black" fill-opacity="0.2"/>
<path d="M168.599 131.998C168.599 131.199 169.199 130.599 169.998 130.599C170.797 130.599 171.396 131.199 171.396 131.998C171.396 132.797 170.797 133.396 169.998 133.396C169.199 133.396 168.599 132.797 168.599 131.998Z" fill="black" fill-opacity="0.2"/>
<path d="M168.599 141.998C168.599 141.199 169.199 140.599 169.998 140.599C170.797 140.599 171.396 141.199 171.396 141.998C171.396 142.797 170.797 143.396 169.998 143.396C169.199 143.396 168.599 142.797 168.599 141.998Z" fill="black" fill-opacity="0.2"/>
<path d="M168.599 151.998C168.599 151.199 169.199 150.599 169.998 150.599C170.797 150.599 171.396 151.199 171.396 151.998C171.396 152.797 170.797 153.396 169.998 153.396C169.199 153.396 168.599 152.797 168.599 151.998Z" fill="black" fill-opacity="0.2"/>
<path d="M168.599 161.998C168.599 161.199 169.199 160.599 169.998 160.599C170.797 160.599 171.396 161.199 171.396 161.998C171.396 162.797 170.797 163.396 169.998 163.396C169.199 163.396 168.599 162.797 168.599 161.998Z" fill="black" fill-opacity="0.2"/>
<path d="M168.599 171.998C168.599 171.199 169.199 170.599 169.998 170.599C170.797 170.599 171.396 171.199 171.396 171.998C171.396 172.797 170.797 173.396 169.998 173.396C169.199 173.396 168.599 172.797 168.599 171.998Z" fill="black" fill-opacity="0.2"/>
<path d="M168.599 181.998C168.599 181.199 169.199 180.599 169.998 180.599C170.797 180.599 171.396 181.199 171.396 181.998C171.396 182.797 170.797 183.396 169.998 183.396C169.199 183.396 168.599 182.797 168.599 181.998Z" fill="black" fill-opacity="0.2"/>
<path d="M168.599 191.998C168.599 191.199 169.199 190.599 169.998 190.599C170.797 190.599 171.396 191.199 171.396 191.998C171.396 192.797 170.797 193.396 169.998 193.396C169.199 193.396 168.599 192.797 168.599 191.998Z" fill="black" fill-opacity="0.2"/>
<path d="M168.599 201.998C168.599 201.199 169.199 200.599 169.998 200.599C170.797 200.599 171.396 201.199 171.396 201.998C171.396 202.797 170.797 203.396 169.998 203.396C169.199 203.396 168.599 202.797 168.599 201.998Z" fill="black" fill-opacity="0.2"/>
<path d="M168.599 211.998C168.599 211.199 169.199 210.599 169.998 210.599C170.797 210.599 171.396 211.199 171.396 211.998C171.396 212.797 170.797 213.396 169.998 213.396C169.199 213.396 168.599 212.797 168.599 211.998Z" fill="black" fill-opacity="0.2"/>
<path d="M168.599 221.998C168.599 221.199 169.199 220.599 169.998 220.599C170.797 220.599 171.396 221.199 171.396 221.998C171.396 222.797 170.797 223.396 169.998 223.396C169.199 223.396 168.599 222.797 168.599 221.998Z" fill="black" fill-opacity="0.2"/>
</svg>
